<?xml version="1.0" encoding="UTF-8"?><svg id="Layer_1" xmlns="http://www.w3.org/2000/svg" viewBox="0 0 1200 1200"><defs><style>.cls-1{fill:#000;stroke-width:0px;}</style></defs><polygon class="cls-1" points="564.18 823.88 356.07 1026.72 356.07 823.88 564.18 823.88"/><polygon class="cls-1" points="564.63 823.44 564.18 823.88 356.07 823.88 356.07 823.44 564.63 823.44"/><path class="cls-1" d="M356.07,823.44v.44h208.11l.45-.44h-208.56Z"/><path class="cls-1" d="M1077.45,273.44c-.66-3.3-1.65-6.6-2.8-9.9-1.16-3.3-2.48-6.6-3.8-9.9-1.32-2.64-2.64-6.6-3.96-9.24-5.28-9.23-10.56-17.16-18.48-23.76-5.28-5.28-10.56-9.24-15.84-13.2-5.28-3.96-11.88-6.6-17.16-9.24-11.88-5.28-26.4-7.92-40.92-7.92H243.21c-14.52,0-27.72,2.64-40.92,7.92-6.6,2.64-11.88,5.28-17.16,9.24-5.28,3.96-10.56,7.92-15.84,13.2-6.6,6.6-13.2,15.84-18.48,23.76-1.32,2.64-2.64,6.6-3.96,9.24-2.64,6.6-5.28,13.2-6.6,19.8-1.32,6.6-2.64,13.2-2.64,21.12v425.04c0,58.08,47.52,104.28,104.28,104.28h114.18v-.44h208.56l-.45.44h86.91l208.56-1.32h114.84c14.52,0,27.72-2.64,40.92-7.92,6.6-2.64,11.88-5.28,17.16-9.24s10.56-7.92,15.84-13.2c6.6-6.6,13.2-15.84,18.48-23.76,1.32-2.64,2.64-6.6,3.96-9.24,2.64-6.6,5.28-13.2,6.6-19.8,1.32-6.6,2.64-13.2,2.64-21.12v-423.72c0-6.6-1.32-14.52-2.64-21.12ZM477.34,667.71h-19.02c-45.1,0-153.38-38.2-153.38-152.74s86.15-167.91,148.31-167.25c30.41.33,92.7-1.26,92.7-1.26v-66.62l171.88,85.94-171.85,88.08v-60.17h-86.62c-19.25,0-108.47,17.57-108.47,124,0,96.8,101.53,107.96,107.94,107.96s18.73-.25,18.73-.25l-.21,42.31ZM788.42,666.03c-30.4-.33-92.67,1.25-92.67,1.25v66.65l-171.88-85.95,171.85-88.09v60.18h86.61c19.26,0,108.49-17.57,108.49-123.98,0-96.81-101.56-107.97-107.97-107.97s-18.74.25-18.74.25l.24-42.33h18.99c45.13,0,153.38,38.18,153.38,152.72s-86.14,167.92-148.31,167.25Z"/></svg>