<?xml version="1.0" encoding="UTF-8"?><svg id="Layer_1" xmlns="http://www.w3.org/2000/svg" viewBox="0 0 495.75 843.66"><path d="m319.9,760.88c-4,0-7.49-2.93-8.09-7.01-.68-4.7-1.03-9.49-1.03-14.23,0-4.15,3.1-7.58,7.1-8.11,4.13-.74,8.21-1.54,12.23-2.39,4.43-.95,8.77,1.88,9.7,6.31.94,4.43-1.88,8.77-6.31,9.7-2.02.43-4.05.85-6.1,1.24.14,1.72.34,3.43.58,5.14.65,4.47-2.45,8.62-6.92,9.27-.39.06-.79.09-1.18.09h0Z"/><path d="m360.61,843.66c-.56,0-1.13-.04-1.69-.1l-1.84-.23c-4.48-.62-7.61-4.74-7-9.22.36-2.6,1.89-4.74,3.99-5.96-.73-.72-1.48-1.47-2.24-2.24-3.17-3.22-3.14-8.4.08-11.57,3.22-3.18,8.41-3.13,11.57.08,2.03,2.06,3.92,3.91,5.61,5.57l1.11,1.09c2.58,2.54,3.99,5.85,3.99,9.34,0,7.31-6.1,13.26-13.58,13.26h0Z"/><path d="m332.05,836.11c-1.07,0-2.16-.21-3.22-.66-7.67-3.29-15.26-7.53-22.53-12.61-3.71-2.59-4.62-7.69-2.03-11.39,2.58-3.71,7.68-4.62,11.39-2.03,6.36,4.43,12.95,8.12,19.61,10.97,4.15,1.78,6.08,6.59,4.3,10.75-1.33,3.1-4.35,4.96-7.53,4.96h0Z"/><path d="m339.91,807.71c-2.53,0-5.03-1.17-6.62-3.38-5.26-7.25-9.66-14.72-13.07-22.22-1.87-4.12-.05-8.96,4.06-10.84,4.1-1.87,8.96-.05,10.84,4.06,2.96,6.5,6.8,13.02,11.42,19.39,2.65,3.65,1.84,8.77-1.82,11.42-1.45,1.06-3.13,1.57-4.8,1.57h0Z"/><path d="m290.3,806.67c-2.12,0-4.24-.82-5.84-2.44-5.7-5.81-11.24-12.26-16.45-19.16-2.72-3.61-2-8.74,1.61-11.46s8.74-2,11.46,1.61c4.78,6.34,9.85,12.25,15.05,17.55,3.17,3.22,3.13,8.4-.1,11.57-1.59,1.55-3.67,2.33-5.74,2.33h0Z"/><path d="m259.6,765.49c-2.86,0-5.63-1.5-7.13-4.16-1.64-2.92-2.98-5.43-3.98-7.42h-8c-4.52-.02-8.17-3.69-8.16-8.21.01-4.51,3.67-8.16,8.18-8.16h7.22c1.93.01,3.86,0,5.77-.03,3.25-.2,6.26,1.88,7.59,4.88.02.04,1.92,4.33,5.63,10.89,2.22,3.94.83,8.93-3.1,11.15-1.28.72-2.66,1.06-4.02,1.06h0Z"/><path d="m211.07,753.53h-.2c-8.97-.21-17.78-.53-26.39-.97-4.51-.24-7.99-4.09-7.75-8.6.23-4.51,4.13-7.93,8.6-7.75,8.47.44,17.12.75,25.93.96,4.52.11,8.09,3.86,7.99,8.38-.11,4.45-3.74,7.98-8.18,7.98h0Z"/><path d="m155.54,750.36c-.28,0-.55-.02-.83-.05-9.37-.94-18.27-2.12-26.47-3.47-4.46-.74-7.47-4.96-6.73-9.41.74-4.45,4.95-7.41,9.41-6.73,7.85,1.31,16.4,2.43,25.43,3.35,4.49.45,7.77,4.46,7.32,8.96-.42,4.22-3.98,7.36-8.13,7.36h0Z"/><path d="m100.83,740.71c-.73,0-1.46-.1-2.19-.3-9.23-2.56-17.89-5.59-25.75-9-4.15-1.8-6.05-6.62-4.25-10.76,1.8-4.15,6.62-6.06,10.76-4.25,7.17,3.11,15.11,5.88,23.61,8.24,4.36,1.21,6.91,5.72,5.7,10.07-1.01,3.62-4.3,6-7.88,6h0Z"/><path d="m361.43,737.62c-3.5,0-6.73-2.26-7.82-5.77-1.34-4.32,1.09-8.9,5.4-10.23,8.23-2.54,16.3-5.42,23.98-8.55,4.15-1.69,8.95.31,10.66,4.5,1.7,4.19-.32,8.96-4.5,10.66-8.12,3.3-16.63,6.34-25.32,9.01-.8.26-1.61.37-2.41.37h0Z"/><path d="m50.65,717.55c-1.7,0-3.41-.53-4.87-1.62-7.72-5.73-14.55-12.3-20.29-19.51-2.81-3.54-2.23-8.68,1.31-11.5,3.54-2.81,8.68-2.23,11.5,1.31,4.86,6.11,10.66,11.68,17.24,16.57,3.62,2.69,4.39,7.82,1.69,11.45-1.61,2.16-4.08,3.3-6.58,3.3h0Z"/><path d="m412.69,716.27c-2.89,0-5.69-1.54-7.18-4.25-2.17-3.96-.72-8.93,3.25-11.11,7.61-4.16,14.77-8.66,21.3-13.37,3.66-2.64,8.78-1.81,11.42,1.85,2.64,3.67,1.81,8.78-1.85,11.42-7.07,5.09-14.81,9.95-23,14.45-1.25.68-2.6,1.01-3.93,1.01h0Z"/><path d="m457.13,683.17c-2.05,0-4.09-.76-5.68-2.29-3.25-3.13-3.35-8.32-.22-11.57,5.92-6.14,11-12.6,15.08-19.17,2.38-3.85,7.43-5.02,11.27-2.63,3.84,2.38,5.02,7.43,2.63,11.27-4.69,7.55-10.47,14.91-17.19,21.89-1.61,1.66-3.76,2.5-5.9,2.5h0Z"/><path d="m17.31,674.14c-3.26,0-6.34-1.96-7.61-5.17-3.25-8.24-5.72-17.26-7.33-26.81-.75-4.45,2.26-8.67,6.72-9.42,4.51-.73,8.68,2.26,9.43,6.71,1.42,8.42,3.58,16.33,6.41,23.5,1.66,4.2-.4,8.96-4.6,10.63-.99.38-2.01.57-3.01.57h0Z"/><path d="m484.88,635.74c-.66,0-1.34-.08-2.01-.25-4.38-1.11-7.04-5.56-5.93-9.94,1.17-4.63,1.9-9.34,2.18-14.01.17-2.99.27-5.92.27-8.77v-1.02c-.08-4.52,3.53-8.24,8.05-8.31h.13c4.46,0,8.12,3.58,8.18,8.06v1.27c0,3.17-.09,6.42-.29,9.74-.34,5.69-1.23,11.43-2.65,17.05-.94,3.71-4.28,6.18-7.93,6.18h0Z"/><path d="m8.18,619.69h-.02c-4.52-.01-8.17-3.69-8.16-8.21.03-9.7.86-18.95,2.45-27.5.83-4.45,5.12-7.37,9.55-6.54,4.45.83,7.37,5.11,6.54,9.55-1.42,7.58-2.15,15.84-2.17,24.54-.02,4.51-3.68,8.16-8.18,8.16h0Z"/><path d="m483.98,580.71c-3.65,0-6.98-2.46-7.92-6.16-2.02-7.89-5.02-15.31-8.91-22.05-2.26-3.91-.92-8.92,2.99-11.18,3.89-2.25,8.92-.93,11.18,2.99,4.64,8.03,8.22,16.85,10.6,26.2,1.12,4.37-1.52,8.83-5.9,9.95-.69.17-1.37.25-2.04.25h0Z"/><path d="m19.64,565.82c-1.22,0-2.46-.28-3.63-.86-4.05-2-5.7-6.92-3.7-10.97,4.17-8.41,9.49-16.27,15.82-23.38,3.01-3.37,8.18-3.67,11.55-.67,3.37,3.01,3.68,8.18.67,11.55-5.36,6.02-9.86,12.67-13.38,19.76-1.42,2.89-4.32,4.56-7.33,4.56h0Z"/><path d="m455.78,533.87c-1.96,0-3.93-.7-5.5-2.12-5.69-5.17-12.34-9.94-19.75-14.18-3.92-2.24-5.28-7.25-3.04-11.17,2.25-3.93,7.25-5.27,11.17-3.04,8.44,4.83,16.05,10.3,22.62,16.27,3.35,3.04,3.59,8.21.56,11.56-1.62,1.78-3.83,2.68-6.06,2.68h0Z"/><path d="m56.5,525.14c-2.65,0-5.24-1.28-6.82-3.65-2.5-3.76-1.49-8.84,2.27-11.35,7.22-4.81,15.33-9.23,24.11-13.16,4.13-1.83,8.97,0,10.81,4.13,1.84,4.13,0,8.96-4.13,10.81-7.96,3.56-15.26,7.54-21.73,11.84-1.39.93-2.97,1.37-4.52,1.37h0Z"/><path d="m407.86,506.46c-.92,0-1.87-.16-2.78-.49-7.45-2.69-15.61-5.12-24.23-7.24-4.39-1.07-7.08-5.5-6-9.89,1.07-4.39,5.53-7.07,9.89-6,9.19,2.25,17.9,4.85,25.9,7.74,4.25,1.54,6.45,6.22,4.92,10.48-1.2,3.34-4.34,5.41-7.69,5.41h0Z"/><path d="m107.01,502.58c-3.53,0-6.79-2.3-7.84-5.87-1.28-4.33,1.19-8.88,5.53-10.16,8.15-2.41,16.91-4.58,26.06-6.44,4.4-.94,8.75,1.95,9.65,6.38.91,4.43-1.95,8.75-6.38,9.65-8.68,1.78-16.99,3.83-24.7,6.11-.78.23-1.55.33-2.32.33h0Z"/><path d="m353.92,493.27c-.42,0-.85-.03-1.28-.1-8-1.25-16.59-2.34-25.52-3.23-4.5-.45-7.78-4.46-7.33-8.96.46-4.5,4.58-7.76,8.96-7.33,9.23.92,18.12,2.05,26.42,3.35,4.46.7,7.52,4.88,6.82,9.35-.63,4.03-4.11,6.92-8.07,6.92h0Z"/><path d="m161.4,491.49c-4.04,0-7.56-3-8.1-7.12-.59-4.48,2.57-8.59,7.05-9.17,8.44-1.11,17.32-2.04,26.41-2.77,4.48-.38,8.45,2.99,8.81,7.5.36,4.51-2.99,8.45-7.5,8.81-8.83.71-17.44,1.62-25.61,2.69-.35.04-.71.06-1.07.06h0Z"/><path d="m298.58,487.74c-.14,0-.3,0-.44-.01-8.2-.44-16.92-.77-25.9-.97-4.52-.1-8.1-3.85-8-8.36.1-4.46,3.74-8,8.17-8h.19c9.16.2,18.05.54,26.42.99,4.51.25,7.97,4.1,7.73,8.61-.23,4.36-3.84,7.75-8.16,7.75h0Z"/><path d="m216.79,487.05c-4.38,0-8-3.47-8.17-7.88-.17-4.51,3.36-8.31,7.87-8.48,8.51-.31,17.39-.5,26.42-.55h.04c4.5,0,8.16,3.64,8.18,8.14.02,4.52-3.62,8.2-8.14,8.23-8.85.05-17.56.23-25.9.53-.1,0-.2,0-.3,0h0Z"/><path d="m175.85,290.73c-.39,0-.79-.03-1.18-.09-4.48-.65-7.57-4.8-6.92-9.27.25-1.7.44-3.41.58-5.14-2.04-.4-4.07-.82-6.1-1.24-4.42-.94-7.24-5.27-6.31-9.7.94-4.43,5.27-7.25,9.7-6.31,4.03.85,8.11,1.65,12.23,2.39,4.01.53,7.1,3.96,7.1,8.11,0,4.74-.35,9.54-1.03,14.23-.59,4.08-4.09,7.01-8.09,7.01h0Z"/><path d="m135.14,373.51c-7.49,0-13.58-5.95-13.58-13.26,0-3.49,1.41-6.8,3.99-9.34l1.11-1.09c1.69-1.66,3.59-3.52,5.61-5.57,3.17-3.21,8.35-3.26,11.57-.08,3.22,3.17,3.25,8.35.08,11.57-.76.77-1.51,1.52-2.24,2.24,2.1,1.22,3.63,3.37,3.99,5.96.61,4.48-2.53,8.6-7,9.22l-1.84.23c-.56.07-1.13.1-1.69.1h0Z"/><path d="m163.7,365.96c-3.18,0-6.2-1.86-7.53-4.96-1.78-4.16.15-8.96,4.3-10.75,6.66-2.85,13.25-6.54,19.61-10.97,3.71-2.59,8.81-1.68,11.39,2.03,2.59,3.7,1.68,8.8-2.03,11.39-7.27,5.08-14.86,9.32-22.53,12.61-1.06.45-2.14.66-3.22.66h0Z"/><path d="m155.84,337.57c-1.67,0-3.35-.51-4.8-1.57-3.66-2.65-4.47-7.77-1.82-11.42,4.61-6.37,8.46-12.89,11.42-19.39,1.87-4.12,6.73-5.93,10.84-4.06,4.12,1.87,5.93,6.72,4.06,10.84-3.41,7.5-7.81,14.98-13.07,22.22-1.6,2.21-4.09,3.38-6.62,3.38h0Z"/><path d="m205.45,336.53c-2.07,0-4.15-.78-5.74-2.33-3.23-3.17-3.27-8.35-.1-11.57,5.21-5.3,10.27-11.2,15.05-17.55,2.72-3.61,7.85-4.33,11.46-1.61s4.33,7.85,1.61,11.46c-5.21,6.9-10.74,13.35-16.45,19.16-1.6,1.62-3.72,2.44-5.84,2.44h0Z"/><path d="m236.15,295.35c-1.37,0-2.75-.34-4.02-1.06-3.94-2.22-5.32-7.21-3.1-11.15,3.71-6.55,5.61-10.84,5.63-10.89,1.33-3.01,4.34-5.08,7.59-4.88,1.91.03,3.85.04,5.77.04h7.2s.02-.01.02-.01c4.51,0,8.17,3.65,8.18,8.16.01,4.52-3.64,8.19-8.16,8.2h-7.25s-.76.01-.76.01c-1,1.99-2.33,4.51-3.98,7.42-1.5,2.66-4.27,4.16-7.13,4.16h0Z"/><path d="m284.68,283.38c-4.43,0-8.07-3.54-8.18-7.98-.11-4.52,3.47-8.27,7.99-8.38,8.81-.21,17.46-.52,25.93-.96,4.47-.19,8.36,3.23,8.6,7.75.24,4.51-3.23,8.36-7.75,8.6-8.61.45-17.42.76-26.39.97h-.2s0,0,0,0Z"/><path d="m340.21,280.21c-4.15,0-7.71-3.14-8.13-7.36-.45-4.49,2.83-8.51,7.32-8.96,9.02-.92,17.57-2.04,25.43-3.35,4.46-.68,8.67,2.28,9.41,6.73.74,4.46-2.28,8.67-6.73,9.41-8.2,1.36-17.1,2.53-26.47,3.47-.28.03-.56.05-.83.05h0Z"/><path d="m394.92,270.57c-3.58,0-6.87-2.38-7.88-6-1.21-4.36,1.34-8.87,5.7-10.07,8.5-2.36,16.44-5.13,23.61-8.24,4.14-1.81,8.96.1,10.76,4.25,1.8,4.14-.1,8.96-4.25,10.76-7.87,3.41-16.52,6.44-25.75,9-.72.2-1.46.3-2.19.3h0Z"/><path d="m134.32,267.48c-.8,0-1.61-.11-2.41-.37-8.69-2.68-17.2-5.71-25.32-9.01-4.18-1.7-6.2-6.47-4.5-10.66,1.71-4.19,6.51-6.19,10.66-4.5,7.68,3.13,15.75,6,23.98,8.55,4.31,1.33,6.74,5.91,5.4,10.23-1.09,3.52-4.32,5.77-7.82,5.77h0Z"/><path d="m445.1,247.41c-2.5,0-4.97-1.15-6.58-3.3-2.7-3.63-1.93-8.75,1.69-11.45,6.58-4.89,12.38-10.46,17.24-16.57,2.81-3.54,7.96-4.12,11.5-1.31,3.54,2.82,4.12,7.96,1.31,11.5-5.74,7.21-12.57,13.78-20.29,19.51-1.46,1.09-3.17,1.62-4.87,1.62h0Z"/><path d="m83.06,246.12c-1.33,0-2.68-.33-3.93-1.01-8.2-4.49-15.94-9.35-23-14.45-3.67-2.64-4.49-7.76-1.85-11.42,2.64-3.67,7.76-4.49,11.42-1.85,6.52,4.71,13.69,9.21,21.3,13.37,3.97,2.18,5.41,7.15,3.25,11.11-1.49,2.72-4.29,4.25-7.18,4.25h0Z"/><path d="m38.62,213.03c-2.14,0-4.29-.84-5.9-2.5-6.72-6.98-12.5-14.34-17.19-21.89-2.39-3.84-1.21-8.88,2.63-11.27,3.84-2.39,8.88-1.22,11.27,2.63,4.09,6.57,9.16,13.03,15.08,19.17,3.14,3.26,3.04,8.44-.22,11.57-1.58,1.53-3.63,2.29-5.68,2.29h0Z"/><path d="m478.44,203.99c-1,0-2.02-.19-3.01-.57-4.2-1.67-6.26-6.43-4.6-10.63,2.83-7.17,4.99-15.08,6.41-23.5.75-4.46,4.92-7.44,9.43-6.71,4.46.75,7.47,4.97,6.72,9.42-1.61,9.56-4.07,18.58-7.33,26.81-1.27,3.21-4.36,5.17-7.61,5.17h0Z"/><path d="m10.87,165.6c-3.65,0-6.99-2.47-7.93-6.18-1.42-5.62-2.31-11.36-2.65-17.05C.1,139.04,0,135.8,0,132.62v-1.27c.07-4.48,3.72-8.06,8.18-8.06h.13c4.53.07,8.13,3.79,8.06,8.31v1.02c0,2.86.09,5.78.26,8.77.28,4.67,1.01,9.38,2.18,14.01,1.11,4.39-1.55,8.83-5.93,9.94-.67.17-1.35.25-2.01.25h0Z"/><path d="m487.57,149.54c-4.51,0-8.17-3.65-8.18-8.16-.02-8.7-.76-16.95-2.17-24.54-.83-4.44,2.09-8.72,6.54-9.55,4.42-.83,8.71,2.09,9.55,6.54,1.6,8.55,2.42,17.8,2.45,27.5.01,4.52-3.64,8.2-8.16,8.21h-.02s0,0,0,0Z"/><path d="m11.77,110.56c-.67,0-1.35-.08-2.04-.25-4.38-1.12-7.02-5.58-5.9-9.95,2.39-9.35,5.96-18.16,10.6-26.2,2.26-3.92,7.28-5.24,11.18-2.99,3.91,2.26,5.25,7.27,2.99,11.18-3.89,6.74-6.89,14.16-8.91,22.05-.94,3.7-4.27,6.16-7.92,6.16h0Z"/><path d="m476.11,95.67c-3.01,0-5.91-1.67-7.33-4.56-3.52-7.1-8.02-13.75-13.38-19.76-3.01-3.37-2.7-8.55.67-11.55,3.37-3,8.55-2.7,11.55.67,6.32,7.11,11.65,14.97,15.82,23.38,2,4.05.36,8.97-3.7,10.97-1.17.58-2.41.86-3.63.86h0Z"/><path d="m39.97,63.72c-2.23,0-4.45-.9-6.06-2.68-3.04-3.35-2.79-8.53.56-11.56,6.57-5.96,14.18-11.44,22.62-16.27,3.91-2.23,8.92-.89,11.17,3.04,2.24,3.92.88,8.92-3.04,11.17-7.41,4.24-14.05,9.01-19.75,14.18-1.57,1.42-3.54,2.12-5.5,2.12h0Z"/><path d="m439.25,55c-1.55,0-3.13-.44-4.52-1.37-6.46-4.3-13.77-8.29-21.73-11.84-4.12-1.85-5.97-6.68-4.13-10.81,1.84-4.12,6.68-5.96,10.81-4.13,8.78,3.92,16.89,8.35,24.11,13.16,3.76,2.5,4.78,7.58,2.27,11.35-1.58,2.37-4.18,3.65-6.82,3.65h0Z"/><path d="m87.89,36.31c-3.35,0-6.49-2.07-7.69-5.41-1.53-4.25.67-8.94,4.92-10.48,7.99-2.89,16.71-5.49,25.9-7.74,4.36-1.07,8.81,1.61,9.89,6,1.08,4.39-1.61,8.82-6,9.89-8.63,2.11-16.78,4.55-24.23,7.24-.91.34-1.85.49-2.78.49h0Z"/><path d="m388.74,32.43c-.77,0-1.55-.11-2.32-.33-7.7-2.28-16.01-4.33-24.7-6.11-4.43-.91-7.29-5.23-6.38-9.65.91-4.43,5.25-7.31,9.65-6.38,9.14,1.87,17.91,4.03,26.06,6.44,4.33,1.28,6.81,5.83,5.53,10.16-1.05,3.56-4.31,5.87-7.84,5.87h0Z"/><path d="m141.83,23.12c-3.96,0-7.44-2.89-8.07-6.92-.69-4.46,2.36-8.65,6.82-9.35,8.3-1.3,17.19-2.43,26.42-3.35,4.38-.44,8.5,2.83,8.96,7.33.44,4.49-2.83,8.51-7.33,8.96-8.93.89-17.51,1.99-25.52,3.23-.43.07-.86.1-1.28.1h0Z"/><path d="m334.35,21.34c-.36,0-.72-.02-1.07-.06-8.17-1.07-16.78-1.97-25.61-2.69-4.51-.36-7.86-4.31-7.5-8.81.36-4.51,4.34-7.88,8.81-7.5,9.09.73,17.98,1.66,26.41,2.77,4.48.58,7.64,4.69,7.05,9.17-.54,4.12-4.05,7.12-8.1,7.12h0Z"/><path d="m197.17,17.6c-4.32,0-7.93-3.38-8.16-7.75-.25-4.51,3.22-8.36,7.73-8.61,8.37-.45,17.26-.79,26.42-.99h.19c4.43,0,8.07,3.54,8.17,8,.1,4.52-3.48,8.26-8,8.36-8.98.21-17.7.53-25.9.97-.14.01-.3.01-.44.01h0Z"/><path d="m278.96,16.9c-.1,0-.2,0-.3,0-8.33-.3-17.05-.48-25.9-.53-4.52-.03-8.17-3.71-8.14-8.23C244.64,3.64,248.3,0,252.8,0h.04c9.02.05,17.91.23,26.42.55,4.51.17,8.04,3.97,7.87,8.48-.17,4.41-3.79,7.88-8.17,7.88h0Z"/></svg>