<?xml version="1.0" encoding="UTF-8"?>
<svg xmlns="http://www.w3.org/2000/svg" version="1.1" viewBox="0 0 1200 1200">
  <!-- Generator: Adobe Illustrator 29.3.1, SVG Export Plug-In . SVG Version: 2.1.0 Build 151)  -->
  <defs>
    <style>
      .st0 {
        fill: #fff;
        fill-rule: evenodd;
      }

      .st1 {
        fill: #09f;
      }
    </style>
  </defs>
  <g id="Background">
    <rect class="st1" width="1200" height="1200"/>
  </g>
  <g id="Icon">
    <g>
      <path class="st0" d="M574,585.5c31.5,16.3,67.4,25.5,105.3,25.5,126.9,0,230-103.1,230-230s-103.1-230-230-230-230,103.1-230,230v242.7c0,7.6,4.3,14.5,11.2,17.8,6.8,3.3,15,2.3,20.9-2.5,0,0,40-32.6,72.8-47.5,4.8-2.2,9.4-4,13.6-5.1,2.1-.6,5.3-.8,6.2-.9h0ZM679.3,190.3c105.2,0,190.7,85.4,190.7,190.7s-85.4,190.7-190.7,190.7-61.7-7.8-88-21.5c-6.2-3.2-14-4.7-23.1-3.8-8.8.9-19.4,4.2-30.5,9.3-16.3,7.4-34.2,18.8-49.1,29,0,0,0-203.7,0-203.7,0-105.2,85.4-190.7,190.7-190.7h0Z"/>
      <path class="st0" d="M394.8,563.3h-187.4c-32.6,0-59,26.4-59,59v333.7c0,32.6,26.4,59,59,59h787.2c32.6,0,59-26.4,59-59v-333.7c0-15.6-6.2-30.7-17.3-41.7-11.1-11.1-26.1-17.3-41.7-17.3h-84.3c-10.9,0-19.7,8.8-19.7,19.7s8.8,19.7,19.7,19.7h84.3c5.2,0,10.2,2.1,13.9,5.8,3.7,3.7,5.8,8.7,5.8,13.9v333.7c0,10.9-8.8,19.7-19.7,19.7H207.4c-10.9,0-19.7-8.8-19.7-19.7v-333.7c0-10.9,8.8-19.7,19.7-19.7h187.4c10.9,0,19.7-8.8,19.7-19.7s-8.8-19.7-19.7-19.7h0Z"/>
      <path class="st0" d="M291.7,942.9h618.5c10.9,0,19.7-8.8,19.7-19.7s-8.8-19.7-19.7-19.7H291.7c-10.9,0-19.7,8.8-19.7,19.7s8.8,19.7,19.7,19.7h0Z"/>
      <path class="st0" d="M353.6,840.7c0,22.8-18.5,41.2-41.2,41.2s-41.2-18.5-41.2-41.2,18.5-41.2,41.2-41.2,41.2,18.5,41.2,41.2"/>
      <path class="st0" d="M353.6,696.4c0,22.8-18.5,41.2-41.2,41.2s-41.2-18.5-41.2-41.2,18.5-41.2,41.2-41.2,41.2,18.5,41.2,41.2"/>
      <path class="st0" d="M497.9,840.7c0,22.8-18.5,41.2-41.2,41.2s-41.2-18.5-41.2-41.2,18.5-41.2,41.2-41.2,41.2,18.5,41.2,41.2"/>
      <path class="st0" d="M497.9,696.4c0,22.8-18.5,41.2-41.2,41.2s-41.2-18.5-41.2-41.2,18.5-41.2,41.2-41.2,41.2,18.5,41.2,41.2"/>
      <path class="st0" d="M642.2,840.7c0,22.8-18.5,41.2-41.2,41.2s-41.2-18.5-41.2-41.2,18.5-41.2,41.2-41.2,41.2,18.5,41.2,41.2"/>
      <path class="st0" d="M642.2,696.4c0,22.8-18.5,41.2-41.2,41.2s-41.2-18.5-41.2-41.2,18.5-41.2,41.2-41.2,41.2,18.5,41.2,41.2"/>
      <path class="st0" d="M786.6,840.7c0,22.8-18.5,41.2-41.2,41.2s-41.2-18.5-41.2-41.2,18.5-41.2,41.2-41.2,41.2,18.5,41.2,41.2"/>
      <path class="st0" d="M786.6,696.4c0,22.8-18.5,41.2-41.2,41.2s-41.2-18.5-41.2-41.2,18.5-41.2,41.2-41.2,41.2,18.5,41.2,41.2"/>
      <path class="st0" d="M930.9,840.7c0,22.8-18.5,41.2-41.2,41.2s-41.2-18.5-41.2-41.2,18.5-41.2,41.2-41.2,41.2,18.5,41.2,41.2"/>
      <path class="st0" d="M930.9,696.4c0,22.8-18.5,41.2-41.2,41.2s-41.2-18.5-41.2-41.2,18.5-41.2,41.2-41.2,41.2,18.5,41.2,41.2"/>
    </g>
  </g>
</svg>