<?xml version="1.0" encoding="UTF-8"?>
<svg id="uuid-69c96829-8e8c-40d8-979d-99bcf3e51ed2" xmlns="http://www.w3.org/2000/svg" version="1.1" viewBox="0 0 724.2 691.2">
  <!-- Generator: Adobe Illustrator 29.3.1, SVG Export Plug-In . SVG Version: 2.1.0 Build 151)  -->
  <defs>
    <style>
      .st0 {
        fill-rule: evenodd;
      }
    </style>
  </defs>
  <path class="st0" d="M340.5,347.6c25.2,13,53.9,20.4,84.2,20.4,101.6,0,184-82.5,184-184S526.3,0,424.8,0s-184,82.5-184,184v194.2c0,6.1,3.5,11.6,9,14.2,5.5,2.6,12,1.8,16.7-2,0,0,32-26,58.2-38,3.8-1.8,7.5-3.2,10.9-4.1,1.7-.4,4.3-.7,5-.7h0ZM424.8,31.5c84.2,0,152.5,68.3,152.5,152.5s-68.3,152.5-152.5,152.5-49.3-6.2-70.4-17.2c-5-2.6-11.2-3.8-18.5-3-7,.7-15.5,3.4-24.4,7.5-13,6-27.4,15-39.3,23.2,0,0,0-163,0-163,0-84.2,68.3-152.5,152.5-152.5h0Z"/>
  <path class="st0" d="M197.2,329.9H47.2c-26.1,0-47.2,21.1-47.2,47.2v266.9c0,26.1,21.1,47.2,47.2,47.2h629.8c26.1,0,47.2-21.1,47.2-47.2v-266.9c0-12.5-5-24.5-13.8-33.4-8.8-8.9-20.9-13.8-33.4-13.8h-67.5c-8.7,0-15.7,7-15.7,15.7s7,15.7,15.7,15.7h67.5c4.2,0,8.2,1.7,11.1,4.6,2.9,3,4.6,7,4.6,11.1v266.9c0,8.7-7,15.7-15.7,15.7H47.2c-8.7,0-15.7-7-15.7-15.7v-266.9c0-8.7,7.1-15.7,15.7-15.7h149.9c8.7,0,15.7-7,15.7-15.7s-7.1-15.7-15.7-15.7h0Z"/>
  <path class="st0" d="M114.7,633.5h494.8c8.7,0,15.7-7.1,15.7-15.8s-7-15.8-15.7-15.8H114.7c-8.7,0-15.7,7.1-15.7,15.8s7,15.8,15.7,15.8h0Z"/>
  <path class="st0" d="M164.2,551.8c0,18.2-14.8,33-33,33s-33-14.8-33-33,14.8-33,33-33,33,14.8,33,33"/>
  <path class="st0" d="M164.2,436.3c0,18.2-14.8,33-33,33s-33-14.8-33-33,14.8-33,33-33,33,14.8,33,33"/>
  <path class="st0" d="M279.7,551.8c0,18.2-14.8,33-33,33s-33-14.8-33-33,14.8-33,33-33,33,14.8,33,33"/>
  <path class="st0" d="M279.7,436.3c0,18.2-14.8,33-33,33s-33-14.8-33-33,14.8-33,33-33,33,14.8,33,33"/>
  <path class="st0" d="M395.1,551.8c0,18.2-14.8,33-33,33s-33-14.8-33-33,14.8-33,33-33,33,14.8,33,33"/>
  <path class="st0" d="M395.1,436.3c0,18.2-14.8,33-33,33s-33-14.8-33-33,14.8-33,33-33,33,14.8,33,33"/>
  <path class="st0" d="M510.6,551.8c0,18.2-14.8,33-33,33s-33-14.8-33-33,14.8-33,33-33,33,14.8,33,33"/>
  <path class="st0" d="M510.6,436.3c0,18.2-14.8,33-33,33s-33-14.8-33-33,14.8-33,33-33,33,14.8,33,33"/>
  <path class="st0" d="M626,551.8c0,18.2-14.8,33-33,33s-33-14.8-33-33,14.8-33,33-33,33,14.8,33,33"/>
  <path class="st0" d="M626,436.3c0,18.2-14.8,33-33,33s-33-14.8-33-33,14.8-33,33-33,33,14.8,33,33"/>
</svg>