<?xml version="1.0" encoding="UTF-8"?>
<svg id="Layer_1" data-name="Layer 1" xmlns="http://www.w3.org/2000/svg" version="1.1" viewBox="0 0 1200 1200">
  <defs>
    <style>
      .cls-1 {
        fill: #fff;
      }

      .cls-1, .cls-2 {
        stroke-width: 0px;
      }

      .cls-2 {
        fill: #231f20;
      }
    </style>
  </defs>
  <rect class="cls-2" x="62.4" y="162" width="1075.2" height="907.2"/>
  <g>
    <path class="cls-1" d="M376.8,775.2c-72,0-130.8-58.8-130.8-130.8v-338.4h-87.6c-16.8,0-32.4,3.6-45.6,12-30,15.6-50.4,48-50.4,84v386.4c0,36,20.4,67.2,50.4,84,13.2,7.2,28.8,12,45.6,12h104.4v184.8l189.6-184.8h372c6,0,12-1.2,18-2.4l-108-105.6h-357.6v-1.2Z"/>
    <path class="cls-1" d="M1135.2,237.6c-1.2-6-3.6-12-6-18-1.2-2.4-2.4-6-3.6-8.4-4.8-8.4-9.6-15.6-16.8-21.6-4.8-4.8-9.6-8.4-14.4-12-4.8-3.6-10.8-6-15.6-8.4-10.8-4.8-24-7.2-37.2-7.2H376.8c-13.2,0-25.2,2.4-37.2,7.2-6,2.4-10.8,4.8-15.6,8.4-4.8,3.6-9.6,7.2-14.4,12-6,6-12,14.4-16.8,21.6-1.2,2.4-2.4,6-3.6,8.4-2.4,6-4.8,12-6,18s-2.4,12-2.4,19.2v386.4c0,52.8,43.2,94.8,94.8,94.8h372l129.6,126,60,57.6v-184.8h104.4c13.2,0,25.2-2.4,37.2-7.2,6-2.4,10.8-4.8,15.6-8.4,4.8-3.6,9.6-7.2,14.4-12,6-6,12-14.4,16.8-21.6,1.2-2.4,2.4-6,3.6-8.4,2.4-6,4.8-12,6-18s2.4-12,2.4-19.2v-385.2c0-6-1.2-13.2-2.4-19.2h0ZM516,370.8c-14.4,14.4-44.4,45.6-44.4,80.4s6,18,10.8,20.4c6,2.4,36,9.6,36,40.8s-13.2,31.2-36,31.2-55.2-21.6-55.2-61.2c0-67.2,62.4-112.8,74.4-120,3.6-2.4,8.4-6,13.2-6s7.2,2.4,7.2,6,0,4.8-6,8.4h0ZM643.2,370.8c-15.6,14.4-45.6,45.6-45.6,80.4s6,18,10.8,20.4c6,2.4,37.2,9.6,37.2,40.8s-13.2,31.2-36,31.2-55.2-21.6-55.2-61.2c0-67.2,62.4-112.8,74.4-120,3.6-2.4,8.4-6,13.2-6s7.2,2.4,7.2,6c0,2.4,0,4.8-6,8.4h0ZM811.2,537.6c-3.6,2.4-7.2,6-13.2,6s-7.2-2.4-7.2-6,0-4.8,6-9.6c14.4-14.4,44.4-45.6,44.4-80.4s-6-18-10.8-20.4c-6-2.4-36-9.6-36-40.8s13.2-31.2,36-31.2,55.2,21.6,55.2,61.2c0,68.4-62.4,114-74.4,121.2h0ZM939.6,537.6c-3.6,2.4-8.4,6-13.2,6s-7.2-2.4-7.2-6,0-4.8,6-9.6c15.6-14.4,44.4-45.6,44.4-80.4s-6-18-10.8-20.4c-6-2.4-36-9.6-36-40.8s13.2-31.2,36-31.2,56.4,21.6,56.4,61.2c0,68.4-62.4,114-75.6,121.2h0Z"/>
  </g>
</svg>