<?xml version="1.0" encoding="UTF-8"?><svg id="Layer_1" xmlns="http://www.w3.org/2000/svg" viewBox="0 0 1200 1200"><defs><style>.cls-1{fill:none;}.cls-1,.cls-2{stroke-width:0px;}.cls-2{fill:#000;}</style></defs><polygon class="cls-2" points="262.8 1069.2 452.4 884.4 262.8 884.4 262.8 1069.2"/><path class="cls-2" d="M918.6,383.4h0c-1.2-6-3.6-12-6-18-1.2-2.4-2.4-6-3.6-8.4-4.8-8.4-9.6-15.6-16.8-21.6-4.8-4.8-9.6-8.4-14.4-12-4.8-3.6-10.8-6-15.6-8.4-10.8-4.8-24-7.2-37.2-7.2H160.2c-13.2,0-25.2,2.39-37.2,7.2-6,2.4-10.8,4.8-15.6,8.4-4.8,3.6-9.6,7.2-14.4,12-6,6-12,14.4-16.8,21.6-1.2,2.4-2.4,6-3.6,8.4-2.4,6-4.8,12-6,18-1.2,6-2.4,12-2.4,19.2v386.4c0,52.8,43.2,94.8,94.8,94.8h372l189.6-1.2h104.4c13.2,0,25.2-2.4,37.2-7.2,6-2.4,10.8-4.8,15.6-8.4,4.8-3.6,9.6-7.2,14.4-12,6-6,12-14.4,16.8-21.6,1.2-2.4,2.4-6,3.6-8.4,2.4-6,4.8-12,6-18s2.4-12,2.4-19.2v-385.2c0-6-1.2-13.2-2.4-19.2ZM299.4,516.6h0c-14.4,14.4-44.4,45.6-44.4,80.4,0,9.6,6,18,10.8,20.4,6,2.4,36,9.6,36,40.8,0,16.8-13.2,31.2-36,31.2-21.6,0-55.2-21.6-55.2-61.2,0-67.2,62.4-112.8,74.4-120,3.6-2.4,8.4-6,13.2-6s7.2,2.4,7.2,6c0,2.4,0,4.8-6,8.4ZM426.6,516.6h0c-15.6,14.4-45.6,45.6-45.6,80.4,0,9.6,6,18,10.8,20.4,6,2.4,37.2,9.6,37.2,40.8,0,16.8-13.2,31.2-36,31.2-21.6,0-55.2-21.6-55.2-61.2,0-67.2,62.4-112.8,74.4-120,3.6-2.4,8.4-6,13.2-6s7.2,2.4,7.2,6c0,2.4,0,4.8-6,8.4ZM594.6,683.4h0c-3.6,2.4-7.2,6-13.2,6-4.8,0-7.2-2.4-7.2-6s0-4.8,6-9.6c14.4-14.4,44.4-45.6,44.4-80.4,0-9.6-6-18-10.8-20.4-6-2.4-36-9.6-36-40.8,0-16.8,13.2-31.2,36-31.2,21.6,0,55.2,21.6,55.2,61.2,0,68.4-62.4,114-74.4,121.2ZM723,683.4h0c-3.6,2.4-8.4,6-13.2,6s-7.2-2.4-7.2-6,0-4.8,6-9.6c15.6-14.4,44.4-45.6,44.4-80.4,0-9.6-6-18-10.8-20.4-6-2.4-36-9.6-36-40.8,0-16.8,13.2-31.2,36-31.2s56.4,21.6,56.4,61.2c0,68.4-62.4,114-75.6,121.2Z"/><rect class="cls-1" x="1123.86" y="162" width="13.74" height="13.74"/></svg>