<?xml version="1.0" encoding="UTF-8"?>
<svg width="1200pt" height="1200pt" version="1.1" viewBox="0 0 1200 1200" xmlns="http://www.w3.org/2000/svg">
 <path d="m578.38 602.01c25.242 13.047 53.898 20.414 84.254 20.414 101.56 0 184.02-82.457 184.02-184.02 0-101.56-82.453-184.02-184.02-184.02s-184.02 82.457-184.02 184.02v194.16c0 6.0703 3.4805 11.598 8.9688 14.211 5.4766 2.6172 11.961 1.8398 16.688-1.9805 0 0 32.012-26.055 58.211-38.016 3.8438-1.7617 7.5195-3.1836 10.898-4.0664 1.6836-0.4375 4.2695-0.66016 4.9961-0.71094zm84.254-316.14c84.191 0 152.54 68.348 152.54 152.54 0 84.188-68.344 152.54-152.54 152.54-25.383 0-49.316-6.2148-70.379-17.203-4.9844-2.5898-11.207-3.7812-18.457-3.043-7.0312 0.72656-15.48 3.3789-24.387 7.4453-13.051 5.9531-27.402 15.016-39.301 23.223-0.011719 0-0.011719-162.96-0.011719-162.96 0-84.191 68.344-152.54 152.54-152.54z" fill-rule="evenodd"/>
 <path d="m435.06 584.26h-149.95c-26.082 0-47.227 21.137-47.227 47.219v266.92c0 26.082 21.145 47.219 47.227 47.219h629.77c26.082 0 47.227-21.137 47.227-47.219v-266.92c0-12.512-4.9688-24.527-13.836-33.387-8.8516-8.8594-20.871-13.832-33.391-13.832h-67.473c-8.6953 0-15.742 7.0469-15.742 15.742 0 8.6914 7.0469 15.738 15.742 15.738h67.473c4.1719 0 8.1719 1.6719 11.137 4.6172 2.9414 2.9453 4.6055 6.9531 4.6055 11.121v266.92c0 8.6953-7.0508 15.738-15.742 15.738h-629.77c-8.6953 0-15.742-7.043-15.742-15.738v-266.92c0-8.6914 7.0469-15.738 15.742-15.738h149.95c8.6914 0 15.742-7.0469 15.742-15.738 0-8.6953-7.0508-15.742-15.742-15.742z" fill-rule="evenodd"/>
 <path d="m352.59 887.9h494.81c8.6992 0 15.742-7.0625 15.742-15.754 0-8.6914-7.043-15.75-15.742-15.75h-494.81c-8.6992 0-15.742 7.0586-15.742 15.75 0 8.6914 7.043 15.754 15.742 15.754z" fill-rule="evenodd"/>
 <path d="m402.08 806.18c0 18.219-14.77 32.984-32.988 32.984s-32.988-14.766-32.988-32.984 14.77-32.988 32.988-32.988 32.988 14.77 32.988 32.988" fill-rule="evenodd"/>
 <path d="m402.08 690.72c0 18.219-14.77 32.988-32.988 32.988s-32.988-14.77-32.988-32.988 14.77-32.988 32.988-32.988 32.988 14.77 32.988 32.988" fill-rule="evenodd"/>
 <path d="m517.54 806.18c0 18.219-14.77 32.984-32.988 32.984s-32.988-14.766-32.988-32.984 14.77-32.988 32.988-32.988 32.988 14.77 32.988 32.988" fill-rule="evenodd"/>
 <path d="m517.54 690.72c0 18.219-14.77 32.988-32.988 32.988s-32.988-14.77-32.988-32.988 14.77-32.988 32.988-32.988 32.988 14.77 32.988 32.988" fill-rule="evenodd"/>
 <path d="m632.99 806.18c0 18.219-14.77 32.984-32.988 32.984s-32.988-14.766-32.988-32.984 14.77-32.988 32.988-32.988 32.988 14.77 32.988 32.988" fill-rule="evenodd"/>
 <path d="m632.99 690.72c0 18.219-14.77 32.988-32.988 32.988s-32.988-14.77-32.988-32.988 14.77-32.988 32.988-32.988 32.988 14.77 32.988 32.988" fill-rule="evenodd"/>
 <path d="m748.45 806.18c0 18.219-14.766 32.984-32.984 32.984s-32.988-14.766-32.988-32.984 14.77-32.988 32.988-32.988 32.984 14.77 32.984 32.988" fill-rule="evenodd"/>
 <path d="m748.45 690.72c0 18.219-14.766 32.988-32.984 32.988s-32.988-14.77-32.988-32.988 14.77-32.988 32.988-32.988 32.984 14.77 32.984 32.988" fill-rule="evenodd"/>
 <path d="m863.9 806.18c0 18.219-14.77 32.984-32.988 32.984s-32.984-14.766-32.984-32.984 14.766-32.988 32.984-32.988 32.988 14.77 32.988 32.988" fill-rule="evenodd"/>
 <path d="m863.9 690.72c0 18.219-14.77 32.988-32.988 32.988s-32.984-14.77-32.984-32.988 14.766-32.988 32.984-32.988 32.988 14.77 32.988 32.988" fill-rule="evenodd"/>
</svg>
