<?xml version="1.0" encoding="UTF-8"?>
<svg width="1200pt" height="1200pt" version="1.1" viewBox="0 0 1200 1200" xmlns="http://www.w3.org/2000/svg">
 <g>
  <path d="m376.8 775.2c-72 0-130.8-58.801-130.8-130.8v-338.4h-87.602c-16.801 0-32.398 3.6016-45.602 12-30 15.602-50.398 48-50.398 84v386.4c0 36 20.398 67.199 50.398 84 13.199 7.1992 28.801 12 45.602 12h104.4v184.8l189.6-184.8h372c6 0 12-1.1992 18-2.3984l-108-105.6h-357.6z"/>
  <path d="m1135.2 237.6c-1.1992-6-3.6016-12-6-18-1.1992-2.3984-2.3984-6-3.6016-8.3984-4.8008-8.3984-9.6016-15.602-16.801-21.602-4.8008-4.8008-9.6016-8.3984-14.398-12-4.8008-3.6016-10.801-6-15.602-8.3984-10.801-4.8008-24-7.1992-37.199-7.1992l-664.8-0.003906c-13.199 0-25.199 2.3984-37.199 7.1992-6 2.3984-10.801 4.8008-15.602 8.3984-4.8008 3.6016-9.6016 7.1992-14.398 12-6 6-12 14.398-16.801 21.602-1.1992 2.3984-2.3984 6-3.6016 8.3984-2.3984 6-4.8008 12-6 18s-2.3984 12-2.3984 19.199v386.4c0 52.801 43.199 94.801 94.801 94.801h372l129.6 126 60 57.602v-184.8h104.4c13.199 0 25.199-2.3984 37.199-7.1992 6-2.3984 10.801-4.8008 15.602-8.3984 4.8008-3.6016 9.6016-7.1992 14.398-12 6-6 12-14.398 16.801-21.602 1.1992-2.3984 2.3984-6 3.6016-8.3984 2.3984-6 4.8008-12 6-18s2.3984-12 2.3984-19.199v-385.2c0-6-1.2031-13.199-2.4023-19.199zm-619.2 133.2c-14.398 14.398-44.398 45.602-44.398 80.398 0 9.6016 6 18 10.801 20.398 6 2.3984 36 9.6016 36 40.801 0 16.801-13.199 31.199-36 31.199-21.602 0-55.199-21.602-55.199-61.199 0-67.199 62.398-112.8 74.398-120 3.6016-2.3984 8.3984-6 13.199-6s7.1992 2.3984 7.1992 6c0 2.4023 0 4.8008-6 8.4023zm127.2 0c-15.602 14.398-45.602 45.602-45.602 80.398 0 9.6016 6 18 10.801 20.398 6 2.3984 37.199 9.6016 37.199 40.801 0 16.801-13.199 31.199-36 31.199-21.602 0-55.199-21.602-55.199-61.199 0-67.199 62.398-112.8 74.398-120 3.6016-2.3984 8.3984-6 13.199-6 4.8008 0 7.1992 2.3984 7.1992 6 0.003907 2.4023 0.003907 4.8008-5.9961 8.4023zm168 166.8c-3.6016 2.3984-7.1992 6-13.199 6-4.8008 0-7.1992-2.3984-7.1992-6 0-3.6016 0-4.8008 6-9.6016 14.398-14.398 44.398-45.602 44.398-80.398 0-9.6016-6-18-10.801-20.398-6-2.3984-36-9.6016-36-40.801 0-16.801 13.199-31.199 36-31.199 21.602 0 55.199 21.602 55.199 61.199 0.003906 68.398-62.398 114-74.398 121.2zm128.4 0c-3.6016 2.3984-8.3984 6-13.199 6-4.8008 0-7.1992-2.3984-7.1992-6 0-3.6016 0-4.8008 6-9.6016 15.602-14.398 44.398-45.602 44.398-80.398 0-9.6016-6-18-10.801-20.398-6-2.3984-36-9.6016-36-40.801 0-16.801 13.199-31.199 36-31.199s56.398 21.602 56.398 61.199c0 68.398-62.398 114-75.598 121.2z"/>
 </g>
</svg>
