<?xml version="1.0" encoding="UTF-8"?>
<svg width="1200pt" height="1200pt" version="1.1" viewBox="0 0 1200 1200" xmlns="http://www.w3.org/2000/svg">
 <path d="m724.08 291.96c0.054687-51.5-17.055-101.55-48.629-142.23-31.574-40.684-75.805-69.688-125.71-82.418-49.898-12.734-102.62-8.4727-149.83 12.109-47.207 20.582-86.207 56.312-110.84 101.54l308.4 317.28 0.003907-0.003907c38.098-19.332 70.094-48.84 92.441-85.254 22.348-36.41 34.172-78.301 34.156-121.02z"/>
 <path d="m876 784.2v-66.48c-0.015625-16.887-5.6289-33.293-15.965-46.645-10.336-13.355-24.812-22.906-41.156-27.152l-105.96-27.359z"/>
 <path d="m843.48 393.6c-8.1445 6.0352-13.367 15.23-14.383 25.32-1.0117 10.086 2.2734 20.137 9.0547 27.676 6.7812 7.5391 16.43 11.867 26.566 11.922 7.5977-0.03125 14.992-2.4688 21.121-6.9609 33.676-24.523 58.73-59.07 71.59-98.695 12.855-39.625 12.855-82.301 0-121.93-12.859-39.625-37.914-74.172-71.59-98.699-10.379-6.4258-23.305-7.1602-34.344-1.9414-11.035 5.2148-18.68 15.672-20.297 27.77-1.6211 12.102 3.0039 24.199 12.281 32.133 32.582 23.637 51.867 61.449 51.867 101.7 0 40.254-19.285 78.066-51.867 101.7z"/>
 <path d="m941.28 124.92c35.262 25.637 61.508 61.773 74.977 103.24 13.469 41.465 13.469 86.129 0 127.59-13.469 41.465-39.715 77.605-74.977 103.24-7.6875 5.6641-12.809 14.152-14.238 23.594-1.4297 9.4375 0.95312 19.059 6.6172 26.746 5.6641 7.6875 14.152 12.809 23.59 14.234 9.4414 1.4297 19.062-0.94922 26.75-6.6133 47.445-34.59 82.746-83.289 100.86-139.14 18.113-55.852 18.113-116 0-171.85-18.113-55.852-53.414-104.55-100.86-139.14-10.398-6.7227-23.52-7.6289-34.742-2.4023-11.227 5.2227-18.977 15.852-20.523 28.137-1.5469 12.281 3.3281 24.5 12.906 32.348z"/>
 <path d="m1112.9 1078.7-236.88-244.32-228-234.36-85.32-87.719-288.72-296.28-135.24-139.68c-5.3555-5.4297-12.297-9.0156-19.824-10.246-7.5273-1.2305-15.25-0.039063-22.055 3.4062-3.2031 1.6641-6.1875 3.7188-8.8789 6.1211-6.8008 6.6484-10.695 15.719-10.832 25.23-0.13281 9.5117 3.5 18.688 10.109 25.527l174.24 179.28c3.2969 55.434 26.398 107.84 65.102 147.66 38.699 39.828 90.422 64.418 145.74 69.301l102.6 105.6v-0.003906c-2.0977 2.6328-4.0195 5.3984-5.7617 8.2812l-11.039 18.719c-13.734 23.234-38.715 37.484-65.699 37.484-26.988 0-51.969-14.25-65.703-37.484l-10.918-19.199c-8.3984-14.281-21.227-25.434-36.543-31.758-15.312-6.3242-32.27-7.4766-48.297-3.2812l-164.28 42.961c-16.344 4.2461-30.816 13.797-41.152 27.152-10.336 13.352-15.953 29.758-15.969 46.645v344.88c0 20.23 8.0469 39.629 22.363 53.922 14.316 14.293 33.727 22.309 53.957 22.277h613.2c20.336 0.19141 39.902-7.75 54.348-22.062 14.449-14.312 22.574-33.805 22.574-54.137v-125.28l186 192c6.6953 7.0156 15.984 10.965 25.68 10.918 9.4531-0.035156 18.508-3.7891 25.219-10.445 6.707-6.6562 10.527-15.688 10.637-25.137s-3.5039-18.566-10.055-25.375z"/>
</svg>
