<?xml version="1.0" encoding="UTF-8"?>
<svg width="1200pt" height="1200pt" version="1.1" viewBox="0 0 1200 1200" xmlns="http://www.w3.org/2000/svg">
 <path d="m114.88 1038c-15.145 0-23.832-0.61328-23.832-0.61328-4.8477-0.33594-8.6992-4.2227-9-9.0703-0.28906-4.8477 3.0586-9.168 7.8359-10.078 142.25-27.254 207.39-185.53 221.27-224.07-158.75-63.035-253.2-170.89-253.2-289.86 0.011719-188.75 243.17-342.32 542.05-342.32s542.03 153.56 542.03 342.31c0 188.73-243.16 342.28-542.03 342.28h-59.555c-118.21 177.54-355.26 191.42-425.57 191.42zm217.41-245.77c-4.6562 14.891-54.312 165.3-178.67 225.16 93.805-5.8906 277.64-37.129 373.45-185.71 1.7773-2.7461 4.8477-4.4297 8.125-4.4297h64.809c288.2 0 522.67-144.88 522.67-322.93 0-178.08-234.47-322.96-522.67-322.96-288.2 0.003907-522.68 144.88-522.68 322.95 0 112.77 93.266 215.65 249.47 275.17 4.3672 1.668 6.9258 6.2031 6.0703 10.789-0.10938 0.68359-0.3125 1.3438-0.57422 1.9648zm143.68-187.69s-11.195 0.22656-17.027 0.22656c-5.832 0-98.137-10.141-98.137-98.148 0-96.758 81.109-112.73 98.617-112.73h78.742v54.707l156.23-80.074-156.25-78.133v60.562s-56.617 1.4531-84.266 1.1523c-56.508-0.60156-134.83 47.914-134.83 152.05 0 104.12 98.438 138.85 139.44 138.85h17.293zm260.52-215.48s11.219-0.22656 17.039-0.22656 98.148 10.141 98.148 98.148c0 96.742-81.121 112.71-98.629 112.71h-78.742v-54.707l-156.23 80.074 156.25 78.145v-60.59s56.617-1.4414 84.254-1.1406c56.52 0.60156 134.83-47.914 134.83-152.05s-98.41-138.84-139.44-138.84h-17.258z"/>
</svg>
