<?xml version="1.0" encoding="UTF-8"?>
<svg width="1200pt" height="1200pt" version="1.1" viewBox="0 0 1200 1200" xmlns="http://www.w3.org/2000/svg">
 <path d="m720.6 292.68c0 128.31-104.02 232.32-232.32 232.32-128.31 0-232.32-104.01-232.32-232.32 0-128.3 104.01-232.32 232.32-232.32 128.3 0 232.32 104.02 232.32 232.32"/>
 <path d="m815.04 645.84-164.76-42.719c-16.078-4.1797-33.078-3.0078-48.426 3.3359-15.352 6.3438-28.219 17.516-36.656 31.824l-11.039 18.719c-13.707 23.457-38.832 37.879-66 37.879-27.168 0-52.293-14.422-66-37.879l-11.039-18.719c-8.4531-14.297-21.32-25.457-36.668-31.797-15.344-6.3438-32.336-7.5234-48.414-3.3633l-164.52 42.719c-16.426 4.2422-30.973 13.836-41.336 27.266-10.367 13.43-15.961 29.93-15.902 46.895v345.72c0 20.273 8.0508 39.719 22.387 54.051 14.336 14.336 33.777 22.391 54.051 22.391h615.12c20.273 0 39.715-8.0547 54.051-22.391 14.336-14.332 22.391-33.777 22.391-54.051v-345.72c0.058594-16.965-5.5391-33.465-15.902-46.895-10.367-13.43-24.914-23.023-41.34-27.266z"/>
 <path d="m882.84 132.6c-7.7031-5.6836-17.344-8.0703-26.809-6.6406-9.4609 1.4258-17.969 6.5586-23.652 14.258-5.6797 7.7031-8.0703 17.348-6.6406 26.809 1.4297 9.4648 6.5586 17.973 14.262 23.652 32.633 23.734 51.941 61.648 51.941 102 0 40.352-19.309 78.266-51.941 102-7.7188 5.6328-12.883 14.102-14.355 23.543-1.4727 9.4414 0.86328 19.078 6.4961 26.797s14.102 12.883 23.543 14.355c9.4375 1.4766 19.078-0.86328 26.797-6.4961 33.773-24.602 58.902-59.25 71.801-98.992 12.895-39.746 12.895-82.547 0-122.29-12.898-39.742-38.027-74.395-71.801-98.992z"/>
 <path d="m980.88 66.961c-10.395-7.5898-24.051-9.0547-35.82-3.8438-11.77 5.207-19.867 16.301-21.238 29.098-1.375 12.797 4.1836 25.355 14.578 32.945 35.363 25.711 61.684 61.957 75.191 103.54 13.504 41.586 13.504 86.375 0 127.96-13.508 41.586-39.828 77.828-75.191 103.54-7.7148 5.6328-12.879 14.102-14.355 23.543-1.4727 9.4414 0.86328 19.078 6.4961 26.797 5.6328 7.7188 14.102 12.883 23.543 14.355 9.4414 1.4766 19.082-0.86328 26.797-6.4961 47.609-34.672 83.035-83.512 101.21-139.53 18.176-56.02 18.176-116.36 0-172.38-18.18-56.02-53.605-104.86-101.21-139.53z"/>
</svg>
