<?xml version="1.0" encoding="UTF-8"?>
<svg width="1200pt" height="1200pt" version="1.1" viewBox="0 0 1200 1200" xmlns="http://www.w3.org/2000/svg">
 <path d="m1067.3 220.74c2.3438-13.031-1.4062-26.438-10.172-36.328-20.953-24.188-47.203-43.172-76.734-55.5-31.5-12.609-66.797-11.766-97.641 2.3906-84.75 39.094-184.87 107.58-282.74 193.26-97.875-85.688-198-154.18-282.89-193.31-30.844-14.156-66.141-15.047-97.641-2.3906-29.438 12.328-55.641 31.312-76.594 55.359-8.7656 9.9844-12.516 23.391-10.172 36.422 2.3906 13.406 10.828 24.984 22.828 31.359 109.92 58.031 215.44 124.08 315.66 197.53-182.76 196.45-303.14 415.08-339.1 616.78h0.046876c-0.98438 5.5312 2.1094 10.969 7.3594 13.031 1.3594 0.42188 2.7656 0.65625 4.2188 0.70312 4.0781 0 7.875-2.1094 9.9375-5.625 119.86-197.02 270.56-373.55 446.34-522.84 175.78 149.29 326.48 325.78 446.34 522.79 2.0625 3.5156 5.8594 5.6719 9.9375 5.625 1.4531 0 2.8594-0.23438 4.2188-0.70312 5.25-2.0156 8.3438-7.4531 7.3594-12.984-36-201.74-156.28-420.32-339.1-616.78l0.046875-0.046875c100.27-73.453 205.74-139.45 315.66-197.48 12-6.375 20.438-17.906 22.828-31.266z"/>
</svg>
