<?xml version="1.0" encoding="UTF-8"?><svg id="Layer_1" xmlns="http://www.w3.org/2000/svg" viewBox="0 0 1200 1200"><defs><style>.cls-1{fill:#000;stroke-width:0px;}</style></defs><path class="cls-1" d="M114.88,1038c-15.14,0-23.83-.61-23.83-.61-4.85-.34-8.7-4.22-9-9.07-.29-4.85,3.06-9.17,7.84-10.08,142.25-27.25,207.39-185.53,221.27-224.07-158.75-63.03-253.2-170.89-253.2-289.86.01-188.75,243.17-342.32,542.05-342.32s542.03,153.56,542.03,342.31-243.16,342.28-542.03,342.28h-59.55c-118.21,177.54-355.26,191.42-425.57,191.42h0ZM332.29,792.23c-4.66,14.89-54.31,165.3-178.67,225.16,93.81-5.89,277.64-37.13,373.45-185.71,1.78-2.75,4.85-4.43,8.12-4.43h64.81c288.2,0,522.67-144.88,522.67-322.93s-234.47-322.96-522.67-322.96c-288.2,0-522.68,144.88-522.68,322.95,0,112.77,93.27,215.65,249.47,275.17,4.37,1.67,6.93,6.2,6.07,10.79-.11.68-.31,1.34-.57,1.96h0Z"/><path class="cls-1" d="M440.85,465.33l75.61,127.84c78.35-122.34,166.33-229.57,246.07-291.43,17.87-16.5,45.36-6.87,26.12,11-89.36,92.1-158.08,196.58-228.2,360.14-27.49,19.24-59.11,28.87-74.23,11l-98.98-177.33c-13.74-21.99,34.37-72.86,53.61-41.24v.02Z"/></svg>