<?xml version="1.0" encoding="utf-8"?>
<!-- Generator: Adobe Illustrator 27.9.0, SVG Export Plug-In . SVG Version: 6.00 Build 0)  -->
<svg version="1.1" xmlns="http://www.w3.org/2000/svg" xmlns:xlink="http://www.w3.org/1999/xlink" x="0px" y="0px"
	 viewBox="0 0 1200 1200" style="enable-background:new 0 0 1200 1200;" xml:space="preserve">
<style type="text/css">
	.st0{fill:#0096FF;}
	.st1{fill:#FFFFFF;}
</style>
<g id="Layer_2">
	<rect class="st0" width="1200" height="1200"/>
</g>
<g id="Layer_1">
	<g>
		<path class="st1" d="M729.6,839.5c-7.2,0-13.5-5.3-14.6-12.6c-1.2-8.5-1.8-17.1-1.8-25.6c0-7.5,5.6-13.7,12.8-14.6
			c7.4-1.3,14.8-2.8,22-4.3c8-1.7,15.8,3.4,17.5,11.4c1.7,8-3.4,15.8-11.4,17.5c-3.6,0.8-7.3,1.5-11,2.2c0.2,3.1,0.6,6.2,1,9.2
			c1.2,8-4.4,15.5-12.5,16.7C731.1,839.5,730.3,839.5,729.6,839.5L729.6,839.5z"/>
		<path class="st1" d="M802.9,988.5c-1,0-2-0.1-3-0.2l-3.3-0.4c-8.1-1.1-13.7-8.5-12.6-16.6c0.6-4.7,3.4-8.5,7.2-10.7
			c-1.3-1.3-2.7-2.6-4-4c-5.7-5.8-5.6-15.1,0.1-20.8c5.8-5.7,15.1-5.6,20.8,0.1c3.6,3.7,7.1,7,10.1,10l2,2
			c4.6,4.6,7.2,10.5,7.2,16.8C827.4,977.8,816.4,988.5,802.9,988.5L802.9,988.5z"/>
		<path class="st1" d="M751.5,975c-1.9,0-3.9-0.4-5.8-1.2c-13.8-5.9-27.5-13.6-40.6-22.7c-6.7-4.7-8.3-13.8-3.6-20.5
			c4.6-6.7,13.8-8.3,20.5-3.6c11.4,8,23.3,14.6,35.3,19.8c7.5,3.2,10.9,11.9,7.7,19.3C762.7,971.6,757.2,975,751.5,975L751.5,975z"
			/>
		<path class="st1" d="M765.7,923.8c-4.6,0-9-2.1-11.9-6.1c-9.5-13-17.4-26.5-23.5-40c-3.4-7.4-0.1-16.1,7.3-19.5
			c7.4-3.4,16.1-0.1,19.5,7.3c5.3,11.7,12.2,23.4,20.6,34.9c4.8,6.6,3.3,15.8-3.3,20.6C771.7,922.9,768.7,923.8,765.7,923.8
			L765.7,923.8z"/>
		<path class="st1" d="M676.4,922c-3.8,0-7.6-1.5-10.5-4.4c-10.3-10.5-20.2-22.1-29.6-34.5c-4.9-6.5-3.6-15.7,2.9-20.6
			c6.5-4.9,15.7-3.6,20.6,2.9c8.6,11.4,17.7,22,27.1,31.6c5.7,5.8,5.6,15.1-0.2,20.8C683.8,920.6,680.1,922,676.4,922L676.4,922z"/>
		<path class="st1" d="M621.1,847.9c-5.1,0-10.1-2.7-12.8-7.5c-3-5.2-5.4-9.8-7.2-13.4h-1.4l-13,0c-8.1,0-14.7-6.6-14.7-14.8
			c0-8.1,6.6-14.7,14.7-14.7h0l13,0c3.5,0,6.9,0,10.4-0.1c5.9-0.4,11.3,3.4,13.7,8.8c0,0.1,3.5,7.8,10.1,19.6
			c4,7.1,1.5,16.1-5.6,20.1C626.1,847.2,623.6,847.9,621.1,847.9L621.1,847.9z"/>
		<path class="st1" d="M533.7,826.3h-0.4c-16.1-0.4-32-0.9-47.5-1.8c-8.1-0.4-14.4-7.4-13.9-15.5c0.4-8.1,7.4-14.3,15.5-13.9
			c15.2,0.8,30.8,1.4,46.7,1.7c8.1,0.2,14.6,6.9,14.4,15.1C548.3,820,541.7,826.3,533.7,826.3L533.7,826.3z"/>
		<path class="st1" d="M433.8,820.6c-0.5,0-1,0-1.5-0.1c-16.9-1.7-32.9-3.8-47.6-6.3c-8-1.3-13.4-8.9-12.1-16.9
			c1.3-8,8.9-13.3,16.9-12.1c14.1,2.4,29.5,4.4,45.8,6c8.1,0.8,14,8,13.2,16.1C447.7,814.9,441.3,820.6,433.8,820.6L433.8,820.6z"/>
		<path class="st1" d="M335.3,803.2c-1.3,0-2.6-0.2-3.9-0.5c-16.6-4.6-32.2-10.1-46.4-16.2c-7.5-3.2-10.9-11.9-7.6-19.4
			c3.2-7.5,11.9-10.9,19.4-7.6c12.9,5.6,27.2,10.6,42.5,14.8c7.8,2.2,12.4,10.3,10.3,18.1C347.7,799,341.8,803.2,335.3,803.2
			L335.3,803.2z"/>
		<path class="st1" d="M804.4,797.7c-6.3,0-12.1-4.1-14.1-10.4c-2.4-7.8,2-16,9.7-18.4c14.8-4.6,29.3-9.8,43.2-15.4
			c7.5-3,16.1,0.6,19.2,8.1c3.1,7.5-0.6,16.1-8.1,19.2c-14.6,5.9-29.9,11.4-45.6,16.2C807.3,797.5,805.8,797.7,804.4,797.7
			L804.4,797.7z"/>
		<path class="st1" d="M245,761.6c-3.1,0-6.1-0.9-8.8-2.9c-13.9-10.3-26.2-22.1-36.5-35.1c-5.1-6.4-4-15.6,2.4-20.7
			c6.4-5.1,15.6-4,20.7,2.4c8.7,11,19.2,21,31,29.8c6.5,4.8,7.9,14.1,3,20.6C253.9,759.5,249.5,761.6,245,761.6L245,761.6z"/>
		<path class="st1" d="M896.7,759.2c-5.2,0-10.2-2.8-12.9-7.7c-3.9-7.1-1.3-16.1,5.8-20c13.7-7.5,26.6-15.6,38.3-24.1
			c6.6-4.8,15.8-3.3,20.6,3.3c4.8,6.6,3.3,15.8-3.3,20.6c-12.7,9.2-26.7,17.9-41.4,26C901.5,758.7,899.1,759.2,896.7,759.2
			L896.7,759.2z"/>
		<path class="st1" d="M976.6,699.7c-3.7,0-7.4-1.4-10.2-4.1c-5.9-5.6-6-15-0.4-20.8c10.7-11.1,19.8-22.7,27.2-34.5
			c4.3-6.9,13.4-9,20.3-4.7c6.9,4.3,9,13.4,4.7,20.3c-8.4,13.6-18.8,26.8-30.9,39.4C984.4,698.2,980.5,699.7,976.6,699.7
			L976.6,699.7z"/>
		<path class="st1" d="M185,683.4c-5.9,0-11.4-3.5-13.7-9.3c-5.9-14.8-10.3-31.1-13.2-48.3c-1.4-8,4.1-15.6,12.1-17
			c8.1-1.3,15.6,4.1,17,12.1c2.5,15.2,6.4,29.4,11.5,42.3c3,7.6-0.7,16.1-8.3,19.1C188.6,683.1,186.8,683.4,185,683.4L185,683.4z"/>
		<path class="st1" d="M1026.6,614.3c-1.2,0-2.4-0.2-3.6-0.5c-7.9-2-12.7-10-10.7-17.9c2.1-8.3,3.4-16.8,3.9-25.2
			c0.3-5.4,0.5-10.6,0.5-15.8l0-1.8c-0.1-8.1,6.4-14.8,14.5-15h0.2c8,0,14.6,6.4,14.7,14.5l0,2.3c0,5.7-0.2,11.6-0.5,17.5
			c-0.6,10.2-2.2,20.6-4.8,30.7C1039.2,609.9,1033.2,614.3,1026.6,614.3L1026.6,614.3z"/>
		<path class="st1" d="M168.5,585.4L168.5,585.4c-8.2,0-14.8-6.6-14.7-14.8c0.1-17.5,1.5-34.1,4.4-49.5c1.5-8,9.2-13.3,17.2-11.8
			c8,1.5,13.3,9.2,11.8,17.2c-2.5,13.7-3.9,28.5-3.9,44.2C183.2,578.8,176.7,585.4,168.5,585.4L168.5,585.4z"/>
		<path class="st1" d="M1025,515.2c-6.6,0-12.6-4.4-14.3-11.1c-3.6-14.2-9-27.6-16-39.7c-4.1-7-1.7-16,5.4-20.1
			c7-4.1,16-1.7,20.1,5.4c8.4,14.5,14.8,30.3,19.1,47.2c2,7.9-2.7,15.9-10.6,17.9C1027.4,515.1,1026.2,515.2,1025,515.2L1025,515.2z
			"/>
		<path class="st1" d="M189.2,488.4c-2.2,0-4.4-0.5-6.5-1.5c-7.3-3.6-10.3-12.5-6.7-19.7c7.5-15.1,17.1-29.3,28.5-42.1
			c5.4-6.1,14.7-6.6,20.8-1.2c6.1,5.4,6.6,14.7,1.2,20.8c-9.6,10.8-17.7,22.8-24.1,35.6C199.8,485.4,194.6,488.4,189.2,488.4
			L189.2,488.4z"/>
		<path class="st1" d="M974.2,430.9c-3.5,0-7.1-1.3-9.9-3.8c-10.2-9.3-22.2-17.9-35.5-25.5c-7.1-4-9.5-13-5.5-20.1
			c4-7.1,13.1-9.5,20.1-5.5c15.2,8.7,28.9,18.5,40.7,29.3c6,5.5,6.5,14.8,1,20.8C982.2,429.3,978.2,430.9,974.2,430.9L974.2,430.9z"
			/>
		<path class="st1" d="M255.5,415.2c-4.8,0-9.4-2.3-12.3-6.6c-4.5-6.8-2.7-15.9,4.1-20.4c13-8.7,27.6-16.6,43.4-23.7
			c7.4-3.3,16.1,0,19.5,7.4c3.3,7.4,0,16.1-7.4,19.5c-14.3,6.4-27.5,13.6-39.1,21.3C261.2,414.4,258.3,415.2,255.5,415.2
			L255.5,415.2z"/>
		<path class="st1" d="M888,381.6c-1.7,0-3.4-0.3-5-0.9c-13.4-4.8-28.1-9.2-43.6-13c-7.9-1.9-12.7-9.9-10.8-17.8
			c1.9-7.9,9.9-12.7,17.8-10.8c16.5,4,32.2,8.7,46.6,13.9c7.7,2.8,11.6,11.2,8.9,18.9C899.6,377.9,894,381.6,888,381.6L888,381.6z"
			/>
		<path class="st1" d="M346.4,374.6c-6.4,0-12.2-4.1-14.1-10.6c-2.3-7.8,2.1-16,9.9-18.3c14.7-4.3,30.4-8.2,46.9-11.6
			c7.9-1.7,15.7,3.5,17.4,11.5c1.6,8-3.5,15.7-11.5,17.4c-15.6,3.2-30.6,6.9-44.5,11C349.2,374.4,347.8,374.6,346.4,374.6
			L346.4,374.6z"/>
		<path class="st1" d="M790.9,357.8c-0.8,0-1.5-0.1-2.3-0.2c-14.4-2.2-29.9-4.2-45.9-5.8c-8.1-0.8-14-8-13.2-16.1
			c0.8-8.1,8.2-14,16.1-13.2c16.6,1.7,32.6,3.7,47.6,6c8,1.3,13.5,8.8,12.3,16.8C804.3,352.7,798,357.8,790.9,357.8L790.9,357.8z"/>
		<path class="st1" d="M444.3,354.6c-7.3,0-13.6-5.4-14.6-12.8c-1.1-8.1,4.6-15.5,12.7-16.5c15.2-2,31.2-3.7,47.5-5
			c8.1-0.7,15.2,5.4,15.9,13.5c0.6,8.1-5.4,15.2-13.5,15.9c-15.9,1.3-31.4,2.9-46.1,4.8C445.6,354.6,445,354.6,444.3,354.6
			L444.3,354.6z"/>
		<path class="st1" d="M691.3,347.9c-0.3,0-0.5,0-0.8,0c-14.8-0.8-30.5-1.4-46.6-1.8c-8.1-0.2-14.6-6.9-14.4-15.1
			c0.2-8,6.7-14.4,14.7-14.4h0.3c16.5,0.4,32.5,1,47.6,1.8c8.1,0.4,14.4,7.4,13.9,15.5C705.5,341.8,699,347.9,691.3,347.9
			L691.3,347.9z"/>
		<path class="st1" d="M544,346.7c-7.9,0-14.4-6.2-14.7-14.2c-0.3-8.1,6-15,14.2-15.3c15.3-0.6,31.3-0.9,47.6-1h0.1
			c8.1,0,14.7,6.5,14.7,14.7c0,8.1-6.5,14.8-14.7,14.8c-15.9,0.1-31.6,0.4-46.6,1C544.4,346.7,544.2,346.7,544,346.7L544,346.7z"/>
	</g>
</g>
</svg>
