<?xml version="1.0" encoding="UTF-8"?><svg xmlns="http://www.w3.org/2000/svg" viewBox="0 0 1200 1200"><defs><style>.cls-1{fill:#0096ff;}</style></defs><g id="Layer_2"><rect class="cls-1" width="1200" height="1200"/></g><g id="Layer_1"><path d="m729.64,839.54c-7.19,0-13.49-5.28-14.56-12.62-1.22-8.46-1.85-17.09-1.85-25.62,0-7.47,5.57-13.65,12.79-14.6,7.43-1.33,14.77-2.76,22.02-4.3,7.97-1.71,15.78,3.38,17.46,11.35,1.68,7.97-3.39,15.78-11.35,17.46-3.64.77-7.29,1.52-10.97,2.24.25,3.1.6,6.18,1.05,9.25,1.17,8.05-4.41,15.52-12.46,16.69-.7.11-1.42.16-2.13.16h0Z"/><path d="m802.91,988.55c-1.01,0-2.03-.06-3.04-.18l-3.32-.42c-8.06-1.11-13.7-8.53-12.6-16.59.65-4.68,3.4-8.53,7.18-10.74-1.31-1.3-2.66-2.65-4.03-4.04-5.71-5.8-5.65-15.12.14-20.83,5.8-5.72,15.13-5.64,20.83.14,3.65,3.71,7.06,7.04,10.11,10.03l2,1.95c4.64,4.57,7.18,10.53,7.18,16.82-.01,13.16-10.97,23.86-24.45,23.86h0Z"/><path d="m751.51,974.96c-1.93,0-3.89-.38-5.79-1.19-13.81-5.92-27.46-13.55-40.55-22.69-6.67-4.65-8.31-13.83-3.65-20.5,4.64-6.67,13.82-8.31,20.5-3.65,11.45,7.98,23.32,14.62,35.3,19.75,7.47,3.21,10.94,11.86,7.74,19.34-2.4,5.58-7.83,8.93-13.56,8.93h0Z"/><path d="m765.66,923.85c-4.56,0-9.05-2.11-11.92-6.08-9.47-13.05-17.39-26.5-23.53-40-3.37-7.41-.1-16.14,7.31-19.5,7.39-3.37,16.14-.1,19.5,7.31,5.32,11.7,12.25,23.44,20.55,34.9,4.77,6.58,3.32,15.79-3.27,20.56-2.61,1.9-5.64,2.82-8.64,2.82h0Z"/><path d="m676.36,921.98c-3.81,0-7.63-1.47-10.51-4.39-10.27-10.46-20.23-22.06-29.6-34.48-4.89-6.5-3.61-15.74,2.89-20.63s15.74-3.61,20.63,2.89c8.61,11.42,17.72,22.04,27.1,31.58,5.7,5.8,5.63,15.12-.18,20.83-2.87,2.79-6.6,4.2-10.33,4.2h0Z"/><path d="m621.1,847.85c-5.14,0-10.13-2.7-12.83-7.48-2.96-5.25-5.36-9.77-7.16-13.36h-1.36l-13.05-.02c-8.13-.01-14.71-6.62-14.69-14.75.02-8.12,6.61-14.69,14.73-14.69h.03l12.97.02c3.47,0,6.94-.03,10.39-.08,5.85-.36,11.27,3.38,13.66,8.79.03.08,3.46,7.8,10.13,19.59,4,7.08,1.5,16.07-5.58,20.07-2.3,1.29-4.78,1.91-7.24,1.91h0Z"/><path d="m533.74,826.31h-.36c-16.15-.38-32-.95-47.5-1.75-8.12-.43-14.38-7.37-13.94-15.49.42-8.12,7.43-14.28,15.48-13.94,15.24.8,30.81,1.35,46.67,1.73,8.13.19,14.57,6.94,14.38,15.08-.19,8.01-6.74,14.37-14.72,14.37h0Z"/><path d="m433.8,820.61c-.5,0-.99-.03-1.5-.09-16.87-1.69-32.89-3.81-47.64-6.25-8.02-1.34-13.45-8.92-12.12-16.95,1.34-8.01,8.91-13.34,16.95-12.12,14.14,2.36,29.53,4.37,45.77,6.03,8.09.81,13.99,8.04,13.18,16.12-.75,7.6-7.16,13.26-14.63,13.26h0Z"/><path d="m335.32,803.25c-1.31,0-2.64-.18-3.94-.54-16.61-4.61-32.2-10.05-46.35-16.2-7.46-3.24-10.89-11.92-7.65-19.37,3.24-7.46,11.92-10.91,19.37-7.65,12.91,5.6,27.2,10.59,42.5,14.83,7.84,2.17,12.43,10.29,10.26,18.13-1.82,6.53-7.74,10.8-14.19,10.8h0Z"/><path d="m804.39,797.69c-6.3,0-12.12-4.06-14.07-10.39-2.41-7.78,1.95-16.02,9.72-18.41,14.82-4.58,29.34-9.75,43.17-15.38,7.47-3.04,16.11.56,19.19,8.1,3.06,7.54-.57,16.12-8.1,19.19-14.62,5.94-29.94,11.4-45.58,16.22-1.44.47-2.9.67-4.33.67h0Z"/><path d="m244.99,761.56c-3.06,0-6.13-.95-8.77-2.91-13.9-10.31-26.19-22.14-36.53-35.12-5.07-6.37-4.02-15.63,2.36-20.7,6.37-5.06,15.63-4.01,20.69,2.36,8.75,10.99,19.19,21.03,31.04,29.83,6.52,4.85,7.9,14.07,3.04,20.61-2.89,3.88-7.34,5.95-11.84,5.95h0Z"/><path d="m896.67,759.25c-5.2,0-10.25-2.76-12.93-7.66-3.9-7.13-1.3-16.08,5.84-20,13.69-7.5,26.59-15.6,38.33-24.07,6.59-4.75,15.81-3.26,20.56,3.34,4.75,6.6,3.26,15.81-3.34,20.56-12.72,9.17-26.66,17.92-41.41,26.01-2.25,1.23-4.68,1.82-7.07,1.82h0Z"/><path d="m976.65,699.68c-3.68,0-7.37-1.36-10.22-4.11-5.85-5.64-6.04-14.97-.39-20.83,10.66-11.06,19.8-22.68,27.15-34.51,4.29-6.92,13.37-9.04,20.28-4.73,6.91,4.29,9.03,13.37,4.73,20.28-8.43,13.59-18.85,26.84-30.94,39.4-2.9,2.99-6.76,4.5-10.62,4.5h0Z"/><path d="m184.97,683.41c-5.86,0-11.42-3.53-13.7-9.31-5.85-14.83-10.29-31.06-13.19-48.27-1.35-8.01,4.06-15.61,12.09-16.96,8.11-1.31,15.62,4.06,16.97,12.09,2.55,15.15,6.44,29.39,11.53,42.29,2.99,7.56-.71,16.12-8.27,19.13-1.79.69-3.62,1.02-5.42,1.02h0Z"/><path d="m1026.6,614.3c-1.19,0-2.41-.15-3.62-.45-7.89-2-12.67-10-10.67-17.89,2.11-8.33,3.42-16.8,3.92-25.22.31-5.39.49-10.65.49-15.79v-1.84c-.14-8.13,6.35-14.83,14.49-14.96h.23c8.04,0,14.61,6.45,14.72,14.51v2.29c.01,5.71-.16,11.56-.52,17.54-.6,10.25-2.21,20.57-4.76,30.69-1.69,6.67-7.7,11.12-14.28,11.12h0Z"/><path d="m168.55,585.4h-.04c-8.13-.02-14.71-6.64-14.69-14.77.05-17.45,1.54-34.11,4.42-49.5,1.5-8,9.22-13.27,17.18-11.77,8,1.49,13.27,9.19,11.77,17.18-2.55,13.65-3.87,28.51-3.91,44.17-.03,8.12-6.62,14.68-14.73,14.68h0Z"/><path d="m1024.98,515.24c-6.57,0-12.56-4.43-14.26-11.09-3.63-14.2-9.03-27.56-16.04-39.69-4.07-7.04-1.66-16.05,5.38-20.12,7.01-4.05,16.05-1.67,20.12,5.38,8.36,14.46,14.79,30.33,19.08,47.15,2.02,7.87-2.74,15.9-10.62,17.92-1.24.31-2.47.46-3.67.46h0Z"/><path d="m189.18,488.44c-2.2,0-4.43-.5-6.54-1.54-7.29-3.61-10.26-12.45-6.65-19.74,7.51-15.13,17.09-29.29,28.47-42.08,5.41-6.07,14.73-6.61,20.79-1.21,6.07,5.41,6.62,14.72,1.21,20.79-9.64,10.83-17.74,22.8-24.09,35.57-2.56,5.2-7.78,8.21-13.2,8.21h0Z"/><path d="m974.22,430.93c-3.53,0-7.07-1.26-9.9-3.82-10.25-9.31-22.2-17.89-35.54-25.53-7.05-4.04-9.5-13.05-5.46-20.1,4.05-7.07,13.06-9.48,20.1-5.46,15.18,8.69,28.88,18.54,40.71,29.28,6.03,5.46,6.47,14.79,1.01,20.81-2.91,3.2-6.9,4.82-10.91,4.82h0Z"/><path d="m255.52,415.22c-4.76,0-9.44-2.3-12.28-6.57-4.5-6.77-2.68-15.92,4.09-20.42,12.99-8.65,27.59-16.62,43.4-23.68,7.43-3.29,16.15.01,19.46,7.43,3.32,7.43-.01,16.14-7.43,19.46-14.32,6.41-27.47,13.58-39.11,21.32-2.51,1.67-5.34,2.46-8.14,2.46h0Z"/><path d="m887.96,381.59c-1.66,0-3.36-.28-5-.89-13.41-4.84-28.09-9.22-43.62-13.03-7.9-1.93-12.74-9.9-10.8-17.81,1.93-7.91,9.95-12.72,17.8-10.8,16.54,4.05,32.23,8.74,46.61,13.93,7.66,2.76,11.61,11.2,8.86,18.86-2.16,6-7.81,9.73-13.85,9.73h0Z"/><path d="m346.44,374.6c-6.36,0-12.23-4.15-14.12-10.56-2.31-7.8,2.15-15.99,9.95-18.3,14.67-4.34,30.45-8.24,46.91-11.6,7.93-1.68,15.75,3.51,17.38,11.48,1.63,7.97-3.51,15.75-11.48,17.38-15.63,3.2-30.59,6.89-44.45,10.99-1.4.41-2.8.6-4.18.6h0Z"/><path d="m790.88,357.85c-.76,0-1.53-.05-2.3-.18-14.41-2.25-29.86-4.21-45.93-5.82-8.1-.81-14-8.04-13.2-16.12.82-8.1,8.24-13.97,16.12-13.19,16.61,1.66,32.61,3.69,47.55,6.04,8.04,1.25,13.53,8.79,12.28,16.83-1.14,7.26-7.4,12.45-14.53,12.45h0Z"/><path d="m444.34,354.64c-7.28,0-13.61-5.4-14.58-12.82-1.06-8.07,4.62-15.47,12.69-16.51,15.18-2,31.18-3.67,47.54-4.99,8.06-.69,15.22,5.39,15.87,13.5.65,8.11-5.39,15.22-13.5,15.87-15.89,1.29-31.39,2.91-46.09,4.84-.63.07-1.29.12-1.93.12h0Z"/><path d="m691.26,347.9c-.26,0-.54,0-.8-.02-14.76-.8-30.46-1.38-46.62-1.75-8.13-.18-14.58-6.92-14.4-15.05.18-8.02,6.74-14.4,14.71-14.4h.33c16.48.37,32.49.97,47.55,1.78,8.12.44,14.35,7.38,13.91,15.5-.42,7.85-6.91,13.94-14.69,13.94h0Z"/><path d="m544.05,346.65c-7.89,0-14.41-6.24-14.71-14.18-.3-8.12,6.05-14.96,14.17-15.26,15.31-.56,31.31-.9,47.55-.98h.08c8.1,0,14.69,6.55,14.73,14.66.04,8.13-6.52,14.76-14.66,14.81-15.93.09-31.61.41-46.61.96-.18,0-.37,0-.55,0h0Z"/></g></svg>