<?xml version="1.0" encoding="UTF-8"?><svg id="uuid-0ab35756-345c-48bd-97ed-385088569b4a" xmlns="http://www.w3.org/2000/svg" viewBox="0 0 724.23 691.24"><defs><style>.uuid-8dc7a93b-b300-428a-acc1-76bd5c147d31,.uuid-67c30949-bd9c-49d3-acd7-f4db946dc3de{fill-rule:evenodd;}.uuid-67c30949-bd9c-49d3-acd7-f4db946dc3de{fill:none;}</style></defs><path class="uuid-8dc7a93b-b300-428a-acc1-76bd5c147d31" d="M197.18,329.88H47.23C21.15,329.88,0,351.01,0,377.1v266.92c0,26.08,21.15,47.22,47.23,47.22h629.77c26.08,0,47.23-21.14,47.23-47.22v-266.92c0-12.51-4.97-24.53-13.84-33.39-8.85-8.86-20.87-13.83-33.39-13.83h-67.47c-8.7,0-15.74,7.05-15.74,15.74s7.05,15.74,15.74,15.74h67.47c4.17,0,8.17,1.67,11.14,4.62,2.94,2.95,4.61,6.95,4.61,11.12v266.92c0,8.7-7.05,15.74-15.74,15.74H47.23c-8.7,0-15.74-7.04-15.74-15.74v-266.92c0-8.69,7.05-15.74,15.74-15.74h149.95c8.69,0,15.74-7.05,15.74-15.74s-7.05-15.74-15.74-15.74h0Z"/><path class="uuid-8dc7a93b-b300-428a-acc1-76bd5c147d31" d="M114.71,633.52h494.81c8.7,0,15.74-7.06,15.74-15.75s-7.04-15.75-15.74-15.75H114.71c-8.7,0-15.74,7.06-15.74,15.75s7.04,15.75,15.74,15.75h0Z"/><path class="uuid-8dc7a93b-b300-428a-acc1-76bd5c147d31" d="M164.2,551.8c0,18.22-14.77,32.98-32.99,32.98s-32.99-14.77-32.99-32.98,14.77-32.99,32.99-32.99,32.99,14.77,32.99,32.99"/><path class="uuid-8dc7a93b-b300-428a-acc1-76bd5c147d31" d="M164.2,436.34c0,18.22-14.77,32.99-32.99,32.99s-32.99-14.77-32.99-32.99,14.77-32.99,32.99-32.99,32.99,14.77,32.99,32.99"/><path class="uuid-8dc7a93b-b300-428a-acc1-76bd5c147d31" d="M279.66,551.8c0,18.22-14.77,32.98-32.99,32.98s-32.99-14.77-32.99-32.98,14.77-32.99,32.99-32.99,32.99,14.77,32.99,32.99"/><path class="uuid-8dc7a93b-b300-428a-acc1-76bd5c147d31" d="M279.66,436.34c0,18.22-14.77,32.99-32.99,32.99s-32.99-14.77-32.99-32.99,14.77-32.99,32.99-32.99,32.99,14.77,32.99,32.99"/><path class="uuid-8dc7a93b-b300-428a-acc1-76bd5c147d31" d="M395.11,551.8c0,18.22-14.77,32.98-32.99,32.98s-32.99-14.77-32.99-32.98,14.77-32.99,32.99-32.99,32.99,14.77,32.99,32.99"/><path class="uuid-8dc7a93b-b300-428a-acc1-76bd5c147d31" d="M395.11,436.34c0,18.22-14.77,32.99-32.99,32.99s-32.99-14.77-32.99-32.99,14.77-32.99,32.99-32.99,32.99,14.77,32.99,32.99"/><path class="uuid-8dc7a93b-b300-428a-acc1-76bd5c147d31" d="M510.57,551.8c0,18.22-14.77,32.98-32.98,32.98s-32.99-14.77-32.99-32.98,14.77-32.99,32.99-32.99,32.98,14.77,32.98,32.99"/><path class="uuid-8dc7a93b-b300-428a-acc1-76bd5c147d31" d="M510.57,436.34c0,18.22-14.77,32.99-32.98,32.99s-32.99-14.77-32.99-32.99,14.77-32.99,32.99-32.99,32.98,14.77,32.98,32.99"/><path class="uuid-8dc7a93b-b300-428a-acc1-76bd5c147d31" d="M626.02,551.8c0,18.22-14.77,32.98-32.99,32.98s-32.98-14.77-32.98-32.98,14.77-32.99,32.98-32.99,32.99,14.77,32.99,32.99"/><path class="uuid-8dc7a93b-b300-428a-acc1-76bd5c147d31" d="M626.02,436.34c0,18.22-14.77,32.99-32.99,32.99s-32.98-14.77-32.98-32.99,14.77-32.99,32.98-32.99,32.99,14.77,32.99,32.99"/><path d="M710.39,343.71c-8.85-8.86-20.87-13.83-33.39-13.83H47.23c-26.08,0-47.23,21.14-47.23,47.22v266.92c0,26.08,21.15,47.22,47.23,47.22h629.77c26.08,0,47.23-21.14,47.23-47.22v-266.92c0-12.51-4.97-24.53-13.84-33.39ZM692.74,644.02c0,8.69-7.05,15.74-15.74,15.74H47.23c-8.69,0-15.74-7.05-15.74-15.74v-266.92c0-8.69,7.05-15.74,15.74-15.74h629.77c4.17,0,8.17,1.67,11.14,4.62,2.94,2.94,4.6,6.95,4.6,11.12v266.92Z"/><path class="uuid-67c30949-bd9c-49d3-acd7-f4db946dc3de" d="M340.5,347.63c25.24,13.05,53.9,20.41,84.25,20.41,101.56,0,184.02-82.46,184.02-184.02S526.32,0,424.75,0s-184.02,82.46-184.02,184.02v194.16c0,6.07,3.48,11.6,8.97,14.21,5.48,2.62,11.96,1.84,16.69-1.98,0,0,32.01-26.05,58.21-38.02,3.84-1.76,7.52-3.18,10.9-4.07,1.68-.44,4.27-.66,5-.71h0ZM424.75,31.49c84.19,0,152.54,68.35,152.54,152.54s-68.34,152.54-152.54,152.54c-25.38,0-49.32-6.21-70.38-17.2-4.98-2.59-11.21-3.78-18.46-3.04-7.03.73-15.48,3.38-24.39,7.45-13.05,5.95-27.4,15.02-39.3,23.22-.01,0-.01-162.96-.01-162.96,0-84.19,68.34-152.54,152.54-152.54h0Z"/></svg>