<?xml version="1.0" encoding="UTF-8"?><svg id="Layer_1" xmlns="http://www.w3.org/2000/svg" viewBox="0 0 1075.2 907.2"><defs><style>.cls-1{fill:#000;stroke-width:0px;}</style></defs><path class="cls-1" d="M314.4,613.2c-72,0-130.8-58.8-130.8-130.8V144h-87.6c-16.8,0-32.4,3.6-45.6,12C20.4,171.6,0,204,0,240v386.4c0,36,20.4,67.2,50.4,84,13.2,7.2,28.8,12,45.6,12h104.4v184.8l189.6-184.8h372c6,0,12-1.2,18-2.4l-108-105.6h-357.6v-1.2Z"/><path class="cls-1" d="M1072.8,75.6c-1.2-6-3.6-12-6-18-1.2-2.4-2.4-6-3.6-8.4-4.8-8.4-9.6-15.6-16.8-21.6-4.8-4.8-9.6-8.4-14.4-12-4.8-3.6-10.8-6-15.6-8.4C1005.6,2.4,992.4,0,979.2,0H314.4c-13.2,0-25.2,2.39-37.2,7.2-6,2.4-10.8,4.8-15.6,8.4-4.8,3.6-9.6,7.2-14.4,12-6,6-12,14.4-16.8,21.6-1.2,2.4-2.4,6-3.6,8.4-2.4,6-4.8,12-6,18s-2.4,12-2.4,19.2v386.4c0,52.8,43.2,94.8,94.8,94.8h372l129.6,126,60,57.6v-184.8h104.4c13.2,0,25.2-2.4,37.2-7.2,6-2.4,10.8-4.8,15.6-8.4,4.8-3.6,9.6-7.2,14.4-12,6-6,12-14.4,16.8-21.6,1.2-2.4,2.4-6,3.6-8.4,2.4-6,4.8-12,6-18s2.4-12,2.4-19.2V94.8c0-6-1.2-13.2-2.4-19.2h0ZM453.6,208.8c-14.4,14.4-44.4,45.6-44.4,80.4,0,9.6,6,18,10.8,20.4,6,2.4,36,9.6,36,40.8,0,16.8-13.2,31.2-36,31.2-21.6,0-55.2-21.6-55.2-61.2,0-67.2,62.4-112.8,74.4-120,3.6-2.4,8.4-6,13.2-6s7.2,2.4,7.2,6c0,2.4,0,4.8-6,8.4h0ZM580.8,208.8c-15.6,14.4-45.6,45.6-45.6,80.4,0,9.6,6,18,10.8,20.4,6,2.4,37.2,9.6,37.2,40.8,0,16.8-13.2,31.2-36,31.2-21.6,0-55.2-21.6-55.2-61.2,0-67.2,62.4-112.8,74.4-120,3.6-2.4,8.4-6,13.2-6s7.2,2.4,7.2,6c0,2.4,0,4.8-6,8.4h0ZM748.8,375.6c-3.6,2.4-7.2,6-13.2,6-4.8,0-7.2-2.4-7.2-6s0-4.8,6-9.6c14.4-14.4,44.4-45.6,44.4-80.4,0-9.6-6-18-10.8-20.4-6-2.4-36-9.6-36-40.8,0-16.8,13.2-31.2,36-31.2,21.6,0,55.2,21.6,55.2,61.2,0,68.4-62.4,114-74.4,121.2h0ZM877.2,375.6c-3.6,2.4-8.4,6-13.2,6s-7.2-2.4-7.2-6,0-4.8,6-9.6c15.6-14.4,44.4-45.6,44.4-80.4,0-9.6-6-18-10.8-20.4-6-2.4-36-9.6-36-40.8,0-16.8,13.2-31.2,36-31.2s56.4,21.6,56.4,61.2c0,68.4-62.4,114-75.6,121.2h0Z"/></svg>