<?xml version="1.0" encoding="UTF-8"?>
<svg width="1200pt" height="1200pt" version="1.1" viewBox="0 0 1200 1200" xmlns="http://www.w3.org/2000/svg">
 <g>
  <path d="m1022.4 40.312c-2.8516-1.6445-6.082-2.5117-9.375-2.5117s-6.5234 0.86719-9.375 2.5117l-220.69 109.69h-89.25v-56.25c0-4.9727-1.9766-9.7422-5.4922-13.258-3.5156-3.5156-8.2852-5.4922-13.258-5.4922h-150c-4.9727 0-9.7422 1.9766-13.258 5.4922-3.5156 3.5156-5.4922 8.2852-5.4922 13.258v56.25h-75c0-4.9727-1.9766-9.7422-5.4922-13.258-3.5156-3.5156-8.2852-5.4922-13.258-5.4922h-56.25v-18.75c0-4.9727-1.9766-9.7422-5.4922-13.258-3.5156-3.5156-8.2852-5.4922-13.258-5.4922h-150c-4.9727 0-9.7422 1.9766-13.258 5.4922-3.5156 3.5156-5.4922 8.2852-5.4922 13.258v187.5c0 4.9727 1.9766 9.7422 5.4922 13.258 3.5156 3.5156 8.2852 5.4922 13.258 5.4922h150c4.9727 0 9.7422-1.9766 13.258-5.4922 3.5156-3.5156 5.4922-8.2852 5.4922-13.258v-18.75h56.25c4.9727 0 9.7422-1.9766 13.258-5.4922 3.5156-3.5156 5.4922-8.2852 5.4922-13.258h75v31.875l-146.81 220.31c-2.0508 3.0508-3.1602 6.6367-3.1875 10.312v618.75c0 4.9727 1.9766 9.7422 5.4922 13.258 3.5156 3.5156 8.2852 5.4922 13.258 5.4922h450c4.9727 0 9.7422-1.9766 13.258-5.4922 3.5156-3.5156 5.4922-8.2852 5.4922-13.258v-618.75c-0.027344-3.6758-1.1367-7.2617-3.1875-10.312l-146.81-220.31v-31.875h89.25l221.06 110.44c2.6133 1.3398 5.5039 2.043 8.4375 2.0625 3.5117 0.011719 6.9531-0.96484 9.9375-2.8125 5.4922-3.4336 8.8242-9.4609 8.8125-15.938v-300c0.011719-6.4766-3.3203-12.504-8.8125-15.938zm-478.69 72.188h112.5v37.5h-112.5zm-225 168.75h-112.5v-150h112.5zm37.5-37.5v-75h37.5v75zm450 768.75h-412.5v-412.5h412.5zm-412.5 112.5v-75h412.5v75zm265.69-814.69 146.81 220.31v31.875h-412.5v-31.875l146.81-220.31c2.0508-3.0508 3.1602-6.6367 3.1875-10.312v-37.5h112.5v37.5c0.027344 3.6758 1.1367 7.2617 3.1875 10.312zm334.31 15.562-197.81-98.812c-2.6133-1.3398-5.5039-2.043-8.4375-2.0625h-356.25v-37.5h356.25c2.9336-0.019531 5.8242-0.72266 8.4375-2.0625l197.81-98.812z"/>
  <path d="m1125 187.5h-37.5c-6.6992 0-12.887 3.5742-16.238 9.375-3.3477 5.8008-3.3477 12.949 0 18.75 3.3516 5.8008 9.5391 9.375 16.238 9.375h37.5c6.6992 0 12.887-3.5742 16.238-9.375 3.3477-5.8008 3.3477-12.949 0-18.75-3.3516-5.8008-9.5391-9.375-16.238-9.375z"/>
  <path d="m1087.5 150c4.9844 0.027344 9.7734-1.9297 13.312-5.4375l18.75-18.75c4.7578-4.7578 6.6133-11.688 4.8711-18.184-1.7383-6.5-6.8125-11.574-13.312-13.312-6.4961-1.7422-13.426 0.11328-18.184 4.8711l-18.75 18.75c-3.5508 3.5195-5.5469 8.3125-5.5469 13.312s1.9961 9.793 5.5469 13.312c3.5391 3.5078 8.3281 5.4648 13.312 5.4375z"/>
  <path d="m1100.8 267.94c-4.7578-4.7578-11.688-6.6133-18.184-4.8711-6.5 1.7383-11.574 6.8125-13.312 13.312-1.7422 6.4961 0.11328 13.426 4.8711 18.184l18.75 18.75c3.5195 3.5508 8.3125 5.5469 13.312 5.5469s9.793-1.9961 13.312-5.5469c3.5508-3.5195 5.5469-8.3125 5.5469-13.312s-1.9961-9.793-5.5469-13.312z"/>
  <path d="m600 862.5c14.918 0 29.227-5.9258 39.773-16.477 10.551-10.547 16.477-24.855 16.477-39.773s-5.9258-29.227-16.477-39.773c-10.547-10.551-24.855-16.477-39.773-16.477s-29.227 5.9258-39.773 16.477c-10.551 10.547-16.477 24.855-16.477 39.773s5.9258 29.227 16.477 39.773c10.547 10.551 24.855 16.477 39.773 16.477zm0-75c4.9727 0 9.7422 1.9766 13.258 5.4922 3.5156 3.5156 5.4922 8.2852 5.4922 13.258s-1.9766 9.7422-5.4922 13.258c-3.5156 3.5156-8.2852 5.4922-13.258 5.4922s-9.7422-1.9766-13.258-5.4922c-3.5156-3.5156-5.4922-8.2852-5.4922-13.258s1.9766-9.7422 5.4922-13.258c3.5156-3.5156 8.2852-5.4922 13.258-5.4922z"/>
  <path d="m600 712.5c4.9727 0 9.7422-1.9766 13.258-5.4922 3.5156-3.5156 5.4922-8.2852 5.4922-13.258v-37.5c0-6.6992-3.5742-12.887-9.375-16.238-5.8008-3.3477-12.949-3.3477-18.75 0-5.8008 3.3516-9.375 9.5391-9.375 16.238v37.5c0 4.9727 1.9766 9.7422 5.4922 13.258 3.5156 3.5156 8.2852 5.4922 13.258 5.4922z"/>
  <path d="m600 900c-4.9727 0-9.7422 1.9766-13.258 5.4922-3.5156 3.5156-5.4922 8.2852-5.4922 13.258v37.5c0 6.6992 3.5742 12.887 9.375 16.238 5.8008 3.3477 12.949 3.3477 18.75 0 5.8008-3.3516 9.375-9.5391 9.375-16.238v-37.5c0-4.9727-1.9766-9.7422-5.4922-13.258-3.5156-3.5156-8.2852-5.4922-13.258-5.4922z"/>
  <path d="m679.5 745.5c5.0117-0.019531 9.8047-2.0469 13.312-5.625l26.438-26.438c3.2773-4.7852 4.1562-10.82 2.3789-16.34-1.7773-5.5234-6.0078-9.9102-11.461-11.887-5.457-1.9766-11.516-1.3125-16.418 1.7891l-26.438 26.438c-3.5312 3.5-5.5273 8.2617-5.5469 13.234s1.9375 9.75 5.4375 13.281 8.2617 5.5273 13.234 5.5469z"/>
  <path d="m507.19 872.62-26.438 27.375c-3.4922 3.5117-5.4531 8.2656-5.4531 13.219s1.9609 9.707 5.4531 13.219c3.4609 3.5312 8.1797 5.5547 13.125 5.625 5.0117-0.019531 9.8047-2.0469 13.312-5.625l26.438-26.438c3.4922-3.5117 5.4531-8.2656 5.4531-13.219s-1.9609-9.707-5.4531-13.219c-3.3867-3.6211-8.0703-5.75-13.023-5.9258-4.957-0.17578-9.7773 1.6172-13.414 4.9883z"/>
  <path d="m693.75 806.25c0 4.9727 1.9766 9.7422 5.4922 13.258 3.5156 3.5156 8.2852 5.4922 13.258 5.4922h37.5c6.6992 0 12.887-3.5742 16.238-9.375 3.3477-5.8008 3.3477-12.949 0-18.75-3.3516-5.8008-9.5391-9.375-16.238-9.375h-37.5c-4.9727 0-9.7422 1.9766-13.258 5.4922-3.5156 3.5156-5.4922 8.2852-5.4922 13.258z"/>
  <path d="m450 825h37.5c6.6992 0 12.887-3.5742 16.238-9.375 3.3477-5.8008 3.3477-12.949 0-18.75-3.3516-5.8008-9.5391-9.375-16.238-9.375h-37.5c-6.6992 0-12.887 3.5742-16.238 9.375-3.3477 5.8008-3.3477 12.949 0 18.75 3.3516 5.8008 9.5391 9.375 16.238 9.375z"/>
  <path d="m693.75 925.5c3.5078 3.5781 8.3008 5.6055 13.312 5.625 4.9453-0.070312 9.6641-2.0938 13.125-5.625 3.4922-3.5117 5.4531-8.2656 5.4531-13.219s-1.9609-9.707-5.4531-13.219l-26.438-26.438c-3.5117-3.4922-8.2656-5.4531-13.219-5.4531s-9.707 1.9609-13.219 5.4531c-3.4922 3.5117-5.4531 8.2656-5.4531 13.219s1.9609 9.707 5.4531 13.219z"/>
  <path d="m507.19 739.88c3.5078 3.5781 8.3008 5.6055 13.312 5.625 4.9727-0.019531 9.7344-2.0156 13.234-5.5469s5.457-8.3086 5.4375-13.281-2.0156-9.7344-5.5469-13.234l-26.438-26.438c-3.3984-3.9688-8.2969-6.3398-13.52-6.5391-5.2188-0.20313-10.285 1.7812-13.98 5.4766s-5.6797 8.7617-5.4766 13.98c0.19922 5.2227 2.5703 10.121 6.5391 13.52z"/>
 </g>
</svg>
