<?xml version="1.0" encoding="UTF-8"?>
<svg width="1200pt" height="1200pt" version="1.1" viewBox="0 0 1200 1200" xmlns="http://www.w3.org/2000/svg">
 <g>
  <path d="m225 581.25c-16.031 0.089844-31.32-6.7461-41.945-18.75-10.789-12.066-15.859-28.199-13.91-44.27 0.55078-4.9492-0.88672-9.9141-4-13.801-3.1133-3.8867-7.6445-6.375-12.594-6.918-4.918-0.46094-9.8242 1.0117-13.676 4.1055-3.8477 3.0938-6.3438 7.5664-6.9492 12.469-3.1172 26.578 5.2734 53.219 23.055 73.215 17.781 19.996 43.262 31.438 70.02 31.449 6.6992 0 12.887-3.5742 16.238-9.375 3.3477-5.8008 3.3477-12.949 0-18.75-3.3516-5.8008-9.5391-9.375-16.238-9.375z"/>
  <path d="m1059.4 616.43c-60.484-33.477-125-59.074-191.98-76.184-4.8047-1.2969-9.9258-0.63281-14.242 1.8477-4.3125 2.4766-7.4688 6.5703-8.7656 11.371-1.2969 4.8047-0.63281 9.9297 1.8438 14.242 2.4805 4.3164 6.5703 7.4688 11.375 8.7656 63.848 16.23 125.36 40.574 183.02 72.43 5.7969 3.2969 12.91 3.2656 18.68-0.082032 5.7656-3.3477 9.3242-9.5039 9.3359-16.176 0.015625-6.668-3.5117-12.844-9.2656-16.215z"/>
  <path d="m1125 168.75c-4.9727 0-9.7422 1.9766-13.258 5.4922-3.5156 3.5156-5.4922 8.2852-5.4922 13.258v51.281c-51.262 96.824-211.5 166.35-452.89 196.88-2.8359-6.8477-7.6367-12.703-13.797-16.824-6.1602-4.1211-13.406-6.3242-20.816-6.332h-75c-9.6328 0.035156-18.887 3.7734-25.836 10.445-6.9492 6.6719-11.066 15.762-11.496 25.387-15.488 0.73047-28.238 1.1445-37.727 1.3672h0.003906c-0.082031-4.9102-2.082-9.5938-5.5781-13.043-3.4961-3.4531-8.207-5.3906-13.117-5.4062h-59.344c-14.754 0.12109-28.84-6.1328-38.645-17.156-22.59-25.906-52.555-44.297-85.883-52.711-33.328-8.4141-68.43-6.4492-100.61 5.6328-32.18 12.078-59.906 33.699-79.465 61.965-19.559 28.266-30.016 61.832-29.98 96.203 0.039062 34.375 10.574 67.918 30.195 96.141 19.621 28.223 47.391 49.781 79.598 61.789 32.207 12.012 67.312 13.898 100.62 5.4102 33.309-8.4844 63.23-26.941 85.766-52.898 9.7617-10.918 23.773-17.07 38.418-16.875h59.324c4.9219 0 9.6445-1.9336 13.152-5.3867 3.5078-3.4492 5.5195-8.1445 5.5977-13.062 9.4883 0.22656 22.238 0.63672 37.727 1.3672 0.42578 9.6172 4.5352 18.699 11.473 25.367 6.9375 6.6719 16.176 10.418 25.801 10.465h18.75v37.5h-75c-34.797 0.039062-68.16 13.879-92.766 38.484s-38.445 57.969-38.484 92.766v37.5c0.039062 34.797 13.879 68.16 38.484 92.766s57.969 38.445 92.766 38.484h75v37.5c0 6.6992 3.5742 12.887 9.375 16.238 5.8008 3.3477 12.949 3.3477 18.75 0 5.8008-3.3516 9.375-9.5391 9.375-16.238v-37.5h18.75c9.9453 0 19.484-3.9492 26.516-10.984 7.0352-7.0312 10.984-16.57 10.984-26.516v-37.5c0-9.9453-3.9492-19.484-10.984-26.516-7.0312-7.0352-16.57-10.984-26.516-10.984h-18.75v-75h18.75c9.9453 0 19.484-3.9492 26.516-10.984 7.0352-7.0312 10.984-16.57 10.984-26.516v-37.5c0-9.9453-3.9492-19.484-10.984-26.516-7.0312-7.0352-16.57-10.984-26.516-10.984h-18.75v-37.5h18.75c7.4062-0.003906 14.645-2.1992 20.805-6.3086 6.1602-4.1094 10.965-9.9531 13.809-16.793 241.39 30.469 401.62 99.977 452.89 196.82v51.281c0 6.6992 3.5742 12.887 9.375 16.238 5.8008 3.3477 12.949 3.3477 18.75 0 5.8008-3.3516 9.375-9.5391 9.375-16.238v-675c0-4.9727-1.9766-9.7422-5.4922-13.258-3.5156-3.5156-8.2852-5.4922-13.258-5.4922zm-562.5 693.75h-75c-4.9727 0-9.7422-1.9766-13.258-5.4922-3.5156-3.5156-5.4922-8.2852-5.4922-13.258v-37.5c0-4.9727 1.9766-9.7422 5.4922-13.258 3.5156-3.5156 8.2852-5.4922 13.258-5.4922h75zm56.25-112.5h-131.25c-14.918 0-29.227 5.9258-39.773 16.477-10.551 10.547-16.477 24.855-16.477 39.773v37.5c0 14.918 5.9258 29.227 16.477 39.773 10.547 10.551 24.855 16.477 39.773 16.477h131.25v37.5h-131.25c-24.855-0.03125-48.684-9.918-66.258-27.492-17.574-17.574-27.461-41.402-27.492-66.258v-37.5c0.03125-24.855 9.918-48.684 27.492-66.258 17.574-17.574 41.402-27.461 66.258-27.492h131.25zm-228.07-168.75c-25.508-0.19531-49.848 10.672-66.73 29.793-28.059 32.301-70.094 48.898-112.65 44.48-42.555-4.4219-80.281-29.305-101.1-66.68-20.82-37.375-22.117-82.551-3.4766-121.06 18.641-38.508 54.883-65.512 97.113-72.367 6.8945-1.0938 13.867-1.6484 20.848-1.668 37.996-0.074219 74.148 16.344 99.094 45 16.906 19.203 41.301 30.145 66.883 30h40.594v112.5zm78.074-94.031c9.375-0.22656 22.086-0.63672 37.5-1.3516v78.262c-15.414-0.71094-28.125-1.125-37.5-1.3516zm150 112.78h-75v-150h75zm37.5-23.176v-103.65c161.89-20.25 355.82-66.168 450-169.76v443.17c-94.18-103.59-288.11-149.51-450-169.76z"/>
 </g>
</svg>
