<?xml version="1.0" encoding="UTF-8"?>
<svg width="1200pt" height="1200pt" version="1.1" viewBox="0 0 1200 1200" xmlns="http://www.w3.org/2000/svg">
 <g>
  <path d="m853.96 667.68c0-28.57-17.934-53.668-44.402-63.293v-86.574c0-57.301-41.859-106.48-97.926-116.08v-50.809l12.445-8.7539c29.516-15.973 35.707-33.777 35.707-45.902v-64.672c0-19.297-17.941-34.992-39.988-34.992h-69.605c-4.9688 0-9 4.0312-9 9v194.33h-29.543c-3.2891-34.156-32.133-60.953-67.137-60.953-37.203 0-67.473 30.266-67.473 67.465v190.95c-24.93-45.438-73.219-76.32-128.6-76.32-67.699 0-126.4 46.508-142.32 111.62h-16.512v-17.871h3.3164c4.9688 0 9-4.0312 9-9s-4.0312-9-9-9h-24.367c-4.9688 0-9 4.0312-9 9s4.0312 9 9 9h3.0508v17.871h-20.82c-4.9688 0-9 4.0312-9 9s4.0312 9 9 9h20.82v33.965h-20.82c-4.9688 0-9 4.0312-9 9s4.0312 9 9 9h20.82v23.746c0 4.9688 4.0312 9 9 9s9-4.0312 9-9v-23.746h16.512c15.926 65.113 74.625 111.62 142.32 111.62 55.383 0 103.67-30.883 128.6-76.32v190.96c0 37.203 30.27 67.465 67.473 67.465 35.004 0 63.848-26.797 67.137-60.953h80.035c64.996 0 117.88-52.883 117.88-117.89v-86.566c26.461-9.6289 44.398-34.73 44.398-63.301zm-194.77-453.07h60.605c12.121 0 21.988 7.6211 21.988 16.992v64.672c0 10.219-9.3281 20.898-27.145 30.609l-17.164 12c-2.4102 1.6875-3.8438 4.4336-3.8438 7.3789v100.18h-34.441zm-310.75 581.68c-61.586 0-114.67-43.867-126.23-104.32-0.81641-4.2344-4.5234-7.3047-8.8398-7.3047h-23.762v-33.965h23.762c4.3203 0 8.0273-3.0703 8.8398-7.3047 11.559-60.445 64.645-104.32 126.23-104.32 70.91 0 128.6 57.691 128.6 128.6 0 70.91-57.691 128.61-128.6 128.61zm245.54 132.63c0 27.273-22.191 49.465-49.465 49.465-27.273 0-49.473-22.191-49.473-49.465v-522.48c0-27.273 22.195-49.465 49.473-49.465 27.273 0 49.465 22.191 49.465 49.465zm204.4-213.32c-4.0078 1.0039-6.8203 4.6016-6.8203 8.7305v93.211c0 55.078-44.805 99.887-99.879 99.887h-79.703v-499.5h29.215v37.492c0 4.9688 4.0312 9 9 9h52.441c4.9688 0 9-4.0312 9-9v-35.402c45.961 9.3438 79.926 50.273 79.926 97.789v149.86c0 4.9688 4.0312 9 9 9s9-4.0312 9-9v-43.465c15.926 8.4258 26.402 24.875 26.402 43.465 0 22.691-15.457 42.398-37.582 47.93z"/>
  <path d="m842.87 460.03 144.08-102.13c4.0547-2.8711 5.0156-8.4883 2.1406-12.547-2.8711-4.0547-8.4961-5.0156-12.547-2.1406l-144.08 102.13c-4.0547 2.8711-5.0156 8.4883-2.1406 12.547 1.7539 2.4805 4.5273 3.7969 7.3477 3.7969 1.8008 0.003906 3.625-0.53906 5.1992-1.6562z"/>
  <path d="m1048.1 530.22-167.79 21.137c-4.9336 0.62109-8.4258 5.1211-7.8047 10.055 0.57422 4.5508 4.4492 7.875 8.918 7.875 0.375 0 0.75781-0.023437 1.1367-0.070312l167.79-21.141c4.9336-0.62109 8.4258-5.1211 7.8047-10.055-0.62109-4.9336-5.1016-8.3828-10.055-7.8008z"/>
  <path d="m842.87 884.93c-4.043-2.8711-9.6719-1.9219-12.547 2.1406-2.8789 4.0547-1.918 9.6719 2.1406 12.547l144.08 102.13c1.5781 1.1172 3.3984 1.6602 5.1992 1.6602 2.8203 0 5.5977-1.3203 7.3477-3.7969 2.8789-4.0547 1.918-9.6719-2.1406-12.547z"/>
  <path d="m1050.3 796.88-167.79-21.137c-4.9414-0.55469-9.4258 2.8828-10.055 7.8047-0.62109 4.9336 2.8711 9.4336 7.8047 10.055l167.79 21.137c0.38281 0.046875 0.76172 0.070313 1.1367 0.070313 4.4727 0 8.3438-3.3281 8.918-7.875 0.61719-4.9336-2.875-9.4336-7.8047-10.055z"/>
  <path d="m347.7 563.41c-42.199 0-79.969 25.191-96.215 64.168-1.9102 4.5859 0.25781 9.8555 4.8477 11.77 4.5781 1.8867 9.8555-0.26562 11.77-4.8477 13.441-32.25 44.691-53.09 79.602-53.09 47.566 0 86.266 38.695 86.266 86.262 0 47.566-38.703 86.266-86.266 86.266-35.766 0-67.297-21.539-80.32-54.879-1.8047-4.6367-7.0156-6.8906-11.66-5.1094-4.6289 1.8086-6.9141 7.0312-5.1094 11.66 15.742 40.297 53.855 66.328 97.09 66.328 57.492 0 104.27-46.773 104.27-104.27-0.003906-57.492-46.777-104.26-104.27-104.26z"/>
  <path d="m751.98 796.9c-4.8594-0.70703-9.4414 2.8008-10.113 7.7031-0.35938 2.5898-9.3828 63.324-70.957 65.035-4.9688 0.13672-8.8828 4.2773-8.7422 9.2461 0.13672 4.8828 4.1367 8.7461 8.9883 8.7461 0.085937 0 0.17188 0 0.25781-0.007812 77.062-2.1406 88.191-79.859 88.297-80.641 0.64062-4.9219-2.8125-9.4258-7.7305-10.082z"/>
 </g>
</svg>
