<?xml version="1.0" encoding="UTF-8"?>
<svg width="1200pt" height="1200pt" version="1.1" viewBox="0 0 1200 1200" xmlns="http://www.w3.org/2000/svg">
 <g>
  <path d="m48.648 765.08c-4.3008 0-8.4258-1.7109-11.465-4.75-3.043-3.043-4.75-7.168-4.75-11.469v-169.46c0-5.793 3.0898-11.148 8.1055-14.043 5.0195-2.8984 11.199-2.8984 16.219 0 5.0156 2.8945 8.1055 8.25 8.1055 14.043v169.46c0 4.3008-1.707 8.4258-4.7461 11.469-3.043 3.0391-7.168 4.75-11.469 4.75z"/>
  <path d="m862.38 765.08c-4.3008 0-8.4258-1.7109-11.469-4.75-3.0391-3.043-4.7461-7.168-4.7461-11.469v-169.46c0-5.793 3.0898-11.148 8.1055-14.043 5.0195-2.8984 11.199-2.8984 16.219 0 5.0156 2.8945 8.1055 8.25 8.1055 14.043v169.46c0 4.3008-1.707 8.4258-4.75 11.469-3.0391 3.0391-7.1641 4.75-11.465 4.75z"/>
  <path d="m1052.3 792c-39.707-0.13672-76.516-20.812-97.297-54.648h-92.594c-4.3008 0-8.4258-1.707-11.469-4.75-3.0391-3.0391-4.7461-7.1641-4.7461-11.465v-88.703c0-4.3008 1.707-8.4258 4.7461-11.469 3.043-3.0391 7.168-4.75 11.469-4.75h92.27c21.527-34.734 59.852-55.457 100.7-54.449 40.852 1.0078 78.105 23.59 97.895 59.344 19.793 35.754 19.148 79.316-1.6914 114.47-20.836 35.152-58.746 56.625-99.609 56.422zm-173.68-87.082h85.621c2.9961 0.011719 5.9297 0.84766 8.4766 2.4219 2.5469 1.5742 4.6094 3.8242 5.957 6.4961 11.219 22.492 32.02 38.691 56.57 44.059 24.555 5.3672 50.219-0.67578 69.793-16.438 19.578-15.758 30.965-39.539 30.965-64.672 0-25.133-11.387-48.914-30.965-64.676-19.574-15.762-45.238-21.805-69.793-16.438-24.551 5.3672-45.352 21.566-56.57 44.059-1.3477 2.6719-3.4102 4.9219-5.957 6.4961-2.5469 1.5742-5.4805 2.4141-8.4766 2.4219h-85.621z"/>
  <path d="m423.08 835.14c-29.324-1.2656-58.523-4.5156-87.406-9.7305-5.793-1.043-10.59-5.0977-12.586-10.637-1.9922-5.5391-0.87891-11.719 2.9219-16.215 3.7969-4.4961 9.707-6.625 15.5-5.582 27.406 4.75 55.082 7.7852 82.867 9.082 5.793 0 11.145 3.0898 14.043 8.1094 2.8984 5.0156 2.8984 11.195 0 16.215-2.8984 5.0156-8.25 8.1094-14.043 8.1094z"/>
  <path d="m637.95 810.81c-5.793 0.80859-11.578-1.5312-15.18-6.1445-3.5977-4.6094-4.4648-10.793-2.2695-16.215 2.1953-5.4219 7.1172-9.2617 12.91-10.074 129.73-38.434 212.76-116.59 212.76-199.3 0-123.57-175.3-224.11-390.65-224.11s-390.65 100.86-390.65 224.43c0 82.703 83.516 160.86 212.76 198.97 5.5625 1.6211 9.8359 6.0859 11.211 11.715 1.3789 5.6289-0.35547 11.562-4.5391 15.566-4.1875 4.0078-10.191 5.4766-15.754 3.8516-145.62-42.973-236.11-131.19-236.11-230.11 0-141.57 189.73-256.54 423.08-256.54 233.35 0 423.08 114.97 423.08 256.54 0 98.918-90.488 187.14-236.11 230.43l0.003906-0.003906c-1.4531 0.56641-2.9883 0.89453-4.543 0.97656z"/>
  <path d="m487.95 835.14c-5.793 0-11.145-3.0938-14.043-8.1094-2.8984-5.0195-2.8984-11.199 0-16.215 2.8984-5.0195 8.25-8.1094 14.043-8.1094 27.785-1.2969 55.461-4.332 82.867-9.082 5.793-1.043 11.703 1.0859 15.5 5.582 3.8008 4.4961 4.9141 10.676 2.9219 16.215-1.9961 5.5391-6.793 9.5938-12.586 10.637-28.883 5.2148-58.082 8.4688-87.406 9.7305z"/>
  <path d="m455.51 975.08c-237.24 0-423.08-99.406-423.08-226.05 0-5.793 3.0898-11.148 8.1055-14.043 5.0195-2.8984 11.199-2.8984 16.219 0 5.0156 2.8945 8.1055 8.25 8.1055 14.043 0 105.08 178.38 193.62 390.65 193.62s390.65-88.539 390.65-193.62h0.003906c0-5.793 3.0898-11.148 8.1055-14.043 5.0195-2.8984 11.199-2.8984 16.219 0 5.0156 2.8945 8.1055 8.25 8.1055 14.043 0 126.65-185.84 226.05-423.08 226.05z"/>
  <path d="m448.7 1075.3c-126.49 0-219.73-31.461-276.97-93.566-26.145-27.41-43.141-62.254-48.648-99.73-0.49219-5.793 2.1406-11.41 6.9141-14.734 4.7695-3.3203 10.953-3.8477 16.215-1.375 5.2656 2.4688 8.8086 7.5586 9.3008 13.352 0 6.6484 18.324 163.62 294.32 163.62h12.648c275.68 0 294-156.97 294.49-163.62 0.49219-5.793 4.0391-10.883 9.3008-13.352 5.2656-2.4727 11.445-1.9453 16.219 1.375 4.7695 3.3242 7.4062 8.9414 6.9141 14.734 0 1.9453-19.621 195.57-333.24 193.3z"/>
  <path d="m455.51 672.32c-90 0-160.38-40.863-160.38-92.918 0.003907-52.055 70.379-92.918 160.38-92.918s160.7 40.863 160.7 92.918-70.863 92.918-160.7 92.918zm0-153.41c-75.406 0-127.95 32.434-127.95 60.488s52.539 60.488 127.95 60.488c75.406-0.003906 128.27-31.785 128.27-60.488s-53.027-60.488-128.27-60.488z"/>
  <path d="m455.51 266.92c-4.3008 0-8.4219-1.707-11.465-4.75-3.043-3.0391-4.75-7.1641-4.75-11.465v-109.79c0-5.793 3.0898-11.145 8.1094-14.043 5.0156-2.8945 11.199-2.8945 16.215 0 5.0195 2.8984 8.1094 8.25 8.1094 14.043v109.79c0 4.3008-1.7109 8.4258-4.75 11.465-3.043 3.043-7.168 4.75-11.469 4.75z"/>
  <path d="m717.08 314.11c-4.3359-0.019531-8.4805-1.7695-11.516-4.8672-3.0703-3.043-4.7969-7.1875-4.7969-11.512s1.7266-8.4688 4.7969-11.516l105.25-102c2.9883-3.3828 7.25-5.3672 11.766-5.4727 4.5117-0.10547 8.8672 1.6719 12.012 4.9102 3.1484 3.2344 4.8008 7.6367 4.5664 12.145-0.23438 4.5117-2.3398 8.7148-5.8047 11.609l-104.59 102c-3.1016 3.0742-7.3086 4.7695-11.676 4.7031z"/>
  <path d="m194.59 314.11c-4.2539-0.019531-8.3281-1.707-11.352-4.7031l-105.41-102c-4.1406-4.0547-5.8047-10.012-4.3633-15.629 1.4414-5.6133 5.7695-10.035 11.352-11.594s11.574-0.023438 15.715 4.0312l104.59 102h0.003907c3.1289 3.0195 4.9141 7.1641 4.9609 11.512 0.042969 4.3438-1.6562 8.5273-4.7266 11.609-3.0664 3.0781-7.2422 4.7969-11.586 4.7734z"/>
 </g>
</svg>
