<?xml version="1.0" encoding="UTF-8"?>
<svg id="uuid-69c96829-8e8c-40d8-979d-99bcf3e51ed2" xmlns="http://www.w3.org/2000/svg" version="1.1" viewBox="0 0 300 286.3">
  <!-- Generator: Adobe Illustrator 29.3.1, SVG Export Plug-In . SVG Version: 2.1.0 Build 151)  -->
  <defs>
    <style>
      .st0 {
        fill: #fff;
        fill-rule: evenodd;
      }
    </style>
  </defs>
  <path class="st0" d="M141.4,144c10.1,5.2,21.6,8.2,33.7,8.2,40.6,0,73.6-33,73.6-73.6S215.7,4.9,175.1,4.9s-73.6,33-73.6,73.6v77.7c0,2.4,1.4,4.6,3.6,5.7s4.8.7,6.7-.8c0,0,12.8-10.4,23.3-15.2,1.5-.7,3-1.3,4.4-1.6.7-.2,1.7-.3,2-.3h0ZM175.1,17.5c33.7,0,61,27.3,61,61s-27.3,61-61,61-19.7-2.5-28.2-6.9c-2-1-4.5-1.5-7.4-1.2-2.8.3-6.2,1.4-9.8,3-5.2,2.4-11,6-15.7,9.3v-65.2c0-33.7,27.3-61,61-61h0Z"/>
  <path class="st0" d="M84,136.9H24c-10.4,0-18.9,8.4-18.9,18.9v106.8c0,10.4,8.4,18.9,18.9,18.9h251.9c10.4,0,18.9-8.4,18.9-18.9v-106.8c0-5-2-9.8-5.5-13.4s-8.4-5.5-13.4-5.5h-27c-3.5,0-6.3,2.8-6.3,6.3s2.8,6.3,6.3,6.3h27c1.7,0,3.3.7,4.4,1.8,1.2,1.2,1.8,2.8,1.8,4.4v106.8c0,3.5-2.8,6.3-6.3,6.3H24c-3.5,0-6.3-2.8-6.3-6.3v-106.8c0-3.5,2.8-6.3,6.3-6.3h60c3.5,0,6.3-2.8,6.3-6.3s-2.8-6.3-6.3-6.3h0Z"/>
  <path class="st0" d="M51,258.3h197.9c3.5,0,6.3-2.8,6.3-6.3s-2.8-6.3-6.3-6.3H51c-3.5,0-6.3,2.8-6.3,6.3s2.8,6.3,6.3,6.3h0Z"/>
  <path class="st0" d="M70.8,225.6c0,7.3-5.9,13.2-13.2,13.2s-13.2-5.9-13.2-13.2,5.9-13.2,13.2-13.2,13.2,5.9,13.2,13.2"/>
  <path class="st0" d="M70.8,179.4c0,7.3-5.9,13.2-13.2,13.2s-13.2-5.9-13.2-13.2,5.9-13.2,13.2-13.2,13.2,5.9,13.2,13.2"/>
  <path class="st0" d="M117,225.6c0,7.3-5.9,13.2-13.2,13.2s-13.2-5.9-13.2-13.2,5.9-13.2,13.2-13.2,13.2,5.9,13.2,13.2"/>
  <path class="st0" d="M117,179.4c0,7.3-5.9,13.2-13.2,13.2s-13.2-5.9-13.2-13.2,5.9-13.2,13.2-13.2,13.2,5.9,13.2,13.2"/>
  <path class="st0" d="M163.2,225.6c0,7.3-5.9,13.2-13.2,13.2s-13.2-5.9-13.2-13.2,5.9-13.2,13.2-13.2,13.2,5.9,13.2,13.2"/>
  <path class="st0" d="M163.2,179.4c0,7.3-5.9,13.2-13.2,13.2s-13.2-5.9-13.2-13.2,5.9-13.2,13.2-13.2,13.2,5.9,13.2,13.2"/>
  <path class="st0" d="M209.4,225.6c0,7.3-5.9,13.2-13.2,13.2s-13.2-5.9-13.2-13.2,5.9-13.2,13.2-13.2,13.2,5.9,13.2,13.2"/>
  <path class="st0" d="M209.4,179.4c0,7.3-5.9,13.2-13.2,13.2s-13.2-5.9-13.2-13.2,5.9-13.2,13.2-13.2,13.2,5.9,13.2,13.2"/>
  <path class="st0" d="M255.6,225.6c0,7.3-5.9,13.2-13.2,13.2s-13.2-5.9-13.2-13.2,5.9-13.2,13.2-13.2,13.2,5.9,13.2,13.2"/>
  <path class="st0" d="M255.6,179.4c0,7.3-5.9,13.2-13.2,13.2s-13.2-5.9-13.2-13.2,5.9-13.2,13.2-13.2,13.2,5.9,13.2,13.2"/>
</svg>