<?xml version="1.0" encoding="UTF-8"?><svg id="Layer_1" xmlns="http://www.w3.org/2000/svg" viewBox="0 0 247.88 186.76"><path d="m159.95,145.37c-2,0-3.75-1.47-4.04-3.51-.34-2.35-.51-4.75-.51-7.12,0-2.08,1.55-3.79,3.55-4.06,2.06-.37,4.1-.77,6.12-1.19,2.21-.47,4.38.94,4.85,3.15.47,2.21-.94,4.38-3.15,4.85-1.01.21-2.03.42-3.05.62.07.86.17,1.72.29,2.57.32,2.24-1.22,4.31-3.46,4.63-.19.03-.4.04-.59.04h0Z"/><path d="m180.3,186.76c-.28,0-.56-.02-.85-.05l-.92-.12c-2.24-.31-3.81-2.37-3.5-4.61.18-1.3.95-2.37,2-2.98-.36-.36-.74-.74-1.12-1.12-1.59-1.61-1.57-4.2.04-5.79,1.61-1.59,4.2-1.57,5.79.04,1.01,1.03,1.96,1.96,2.81,2.79l.55.54c1.29,1.27,2,2.92,2,4.67,0,3.66-3.05,6.63-6.79,6.63h0Z"/><path d="m166.03,182.98c-.54,0-1.08-.11-1.61-.33-3.84-1.64-7.63-3.76-11.26-6.3-1.85-1.29-2.31-3.84-1.01-5.69,1.29-1.85,3.84-2.31,5.69-1.01,3.18,2.22,6.48,4.06,9.81,5.49,2.08.89,3.04,3.29,2.15,5.37-.67,1.55-2.18,2.48-3.77,2.48h0Z"/><path d="m169.96,168.78c-1.27,0-2.51-.58-3.31-1.69-2.63-3.62-4.83-7.36-6.54-11.11-.94-2.06-.03-4.48,2.03-5.42,2.05-.94,4.48-.03,5.42,2.03,1.48,3.25,3.4,6.51,5.71,9.69,1.33,1.83.92,4.39-.91,5.71-.73.53-1.57.78-2.4.78h0Z"/><path d="m145.15,168.26c-1.06,0-2.12-.41-2.92-1.22-2.85-2.9-5.62-6.13-8.22-9.58-1.36-1.81-1-4.37.8-5.73s4.37-1,5.73.8c2.39,3.17,4.92,6.12,7.53,8.77,1.58,1.61,1.56,4.2-.05,5.79-.8.78-1.83,1.17-2.87,1.17h0Z"/><path d="m129.8,147.67c-1.43,0-2.81-.75-3.56-2.08-.82-1.46-1.49-2.71-1.99-3.71h-4c-2.26,0-4.09-1.84-4.08-4.1,0-2.26,1.84-4.08,4.09-4.08h3.61c.96,0,1.93,0,2.89-.02,1.63-.1,3.13.94,3.79,2.44,0,.02.96,2.17,2.81,5.44,1.11,1.97.42,4.46-1.55,5.57-.64.36-1.33.53-2.01.53h0Z"/><path d="m105.53,141.69h-.1c-4.49-.11-8.89-.26-13.19-.49-2.26-.12-3.99-2.05-3.87-4.3.12-2.26,2.06-3.97,4.3-3.87,4.23.22,8.56.38,12.96.48,2.26.05,4.05,1.93,3.99,4.19-.05,2.22-1.87,3.99-4.09,3.99h0Z"/><path d="m77.77,140.11c-.14,0-.28,0-.42-.02-4.69-.47-9.13-1.06-13.23-1.74-2.23-.37-3.74-2.48-3.37-4.71.37-2.23,2.47-3.71,4.71-3.37,3.93.65,8.2,1.21,12.71,1.67,2.25.22,3.88,2.23,3.66,4.48-.21,2.11-1.99,3.68-4.06,3.68h0Z"/><path d="m50.42,135.28c-.36,0-.73-.05-1.09-.15-4.61-1.28-8.94-2.79-12.88-4.5-2.07-.9-3.02-3.31-2.12-5.38.9-2.07,3.31-3.03,5.38-2.12,3.58,1.56,7.56,2.94,11.8,4.12,2.18.6,3.45,2.86,2.85,5.04-.51,1.81-2.15,3-3.94,3h0Z"/><path d="m180.71,133.74c-1.75,0-3.37-1.13-3.91-2.89-.67-2.16.54-4.45,2.7-5.12,4.12-1.27,8.15-2.71,11.99-4.27,2.08-.85,4.48.16,5.33,2.25.85,2.09-.16,4.48-2.25,5.33-4.06,1.65-8.32,3.17-12.66,4.51-.4.13-.8.19-1.2.19h0Z"/><path d="m25.33,123.7c-.85,0-1.7-.26-2.44-.81-3.86-2.87-7.28-6.15-10.15-9.76-1.41-1.77-1.12-4.34.65-5.75,1.77-1.4,4.34-1.11,5.75.65,2.43,3.05,5.33,5.84,8.62,8.29,1.81,1.35,2.19,3.91.85,5.72-.8,1.08-2.04,1.65-3.29,1.65h0Z"/><path d="m206.35,123.06c-1.44,0-2.85-.77-3.59-2.13-1.08-1.98-.36-4.47,1.62-5.56,3.8-2.08,7.39-4.33,10.65-6.69,1.83-1.32,4.39-.91,5.71.93,1.32,1.83.91,4.39-.93,5.71-3.53,2.55-7.4,4.98-11.5,7.22-.62.34-1.3.51-1.96.51h0Z"/><path d="m228.56,106.51c-1.02,0-2.05-.38-2.84-1.14-1.63-1.57-1.68-4.16-.11-5.79,2.96-3.07,5.5-6.3,7.54-9.59,1.19-1.92,3.71-2.51,5.63-1.31,1.92,1.19,2.51,3.71,1.31,5.63-2.34,3.77-5.24,7.46-8.59,10.94-.8.83-1.88,1.25-2.95,1.25h0Z"/><path d="m8.65,102c-1.63,0-3.17-.98-3.81-2.59-1.63-4.12-2.86-8.63-3.66-13.41-.38-2.23,1.13-4.34,3.36-4.71,2.25-.36,4.34,1.13,4.71,3.36.71,4.21,1.79,8.16,3.2,11.75.83,2.1-.2,4.48-2.3,5.31-.5.19-1.01.28-1.51.28h0Z"/><path d="m242.44,82.8c-.33,0-.67-.04-1-.13-2.19-.55-3.52-2.78-2.96-4.97.58-2.31.95-4.67,1.09-7.01.09-1.5.13-2.96.13-4.39v-.51c-.04-2.26,1.76-4.12,4.03-4.16h.06c2.23,0,4.06,1.79,4.09,4.03v.64c0,1.59-.04,3.21-.14,4.87-.17,2.85-.62,5.71-1.32,8.53-.47,1.85-2.14,3.09-3.97,3.09h0Z"/><path d="m4.09,74.77h-.01C1.82,74.77,0,72.93,0,70.67c.01-4.85.43-9.47,1.23-13.75.42-2.22,2.56-3.69,4.77-3.27,2.22.41,3.69,2.55,3.27,4.77-.71,3.79-1.07,7.92-1.09,12.27,0,2.25-1.84,4.08-4.09,4.08h0Z"/><path d="m241.99,55.28c-1.82,0-3.49-1.23-3.96-3.08-1.01-3.95-2.51-7.66-4.45-11.03-1.13-1.96-.46-4.46,1.49-5.59,1.95-1.12,4.46-.46,5.59,1.49,2.32,4.02,4.11,8.42,5.3,13.1.56,2.19-.76,4.42-2.95,4.98-.34.08-.69.13-1.02.13h0Z"/><path d="m9.82,47.84c-.61,0-1.23-.14-1.82-.43-2.03-1-2.85-3.46-1.85-5.48,2.08-4.2,4.75-8.14,7.91-11.69,1.5-1.69,4.09-1.84,5.78-.34,1.69,1.5,1.84,4.09.34,5.78-2.68,3.01-4.93,6.33-6.69,9.88-.71,1.44-2.16,2.28-3.67,2.28h0Z"/><path d="m227.89,31.86c-.98,0-1.96-.35-2.75-1.06-2.85-2.59-6.17-4.97-9.87-7.09-1.96-1.12-2.64-3.62-1.52-5.58,1.12-1.96,3.63-2.63,5.58-1.52,4.22,2.42,8.02,5.15,11.31,8.13,1.67,1.52,1.8,4.11.28,5.78-.81.89-1.92,1.34-3.03,1.34h0Z"/><path d="m28.25,27.5c-1.32,0-2.62-.64-3.41-1.82-1.25-1.88-.74-4.42,1.14-5.67,3.61-2.4,7.67-4.62,12.06-6.58,2.06-.92,4.49,0,5.41,2.06.92,2.06,0,4.48-2.06,5.41-3.98,1.78-7.63,3.77-10.86,5.92-.7.46-1.48.68-2.26.68h0Z"/><path d="m203.93,18.16c-.46,0-.93-.08-1.39-.25-3.73-1.34-7.8-2.56-12.12-3.62-2.19-.54-3.54-2.75-3-4.95.54-2.2,2.76-3.53,4.94-3,4.6,1.12,8.95,2.43,12.95,3.87,2.13.77,3.22,3.11,2.46,5.24-.6,1.67-2.17,2.7-3.85,2.7h0Z"/><path d="m53.51,16.22c-1.77,0-3.4-1.15-3.92-2.93-.64-2.17.6-4.44,2.76-5.08,4.07-1.21,8.46-2.29,13.03-3.22,2.2-.47,4.37.97,4.83,3.19.45,2.21-.97,4.37-3.19,4.83-4.34.89-8.5,1.91-12.35,3.05-.39.11-.78.17-1.16.17h0Z"/><path d="m176.96,11.56c-.21,0-.43-.01-.64-.05-4-.62-8.29-1.17-12.76-1.62-2.25-.22-3.89-2.23-3.67-4.48.23-2.25,2.29-3.88,4.48-3.66,4.61.46,9.06,1.03,13.21,1.68,2.23.35,3.76,2.44,3.41,4.67-.32,2.02-2.06,3.46-4.04,3.46h0Z"/><path d="m80.7,10.67c-2.02,0-3.78-1.5-4.05-3.56-.29-2.24,1.28-4.3,3.53-4.59,4.22-.55,8.66-1.02,13.21-1.39,2.24-.19,4.23,1.5,4.41,3.75.18,2.25-1.5,4.23-3.75,4.41-4.41.36-8.72.81-12.8,1.34-.17.02-.36.03-.54.03h0Z"/><path d="m149.29,8.8c-.07,0-.15,0-.22,0-4.1-.22-8.46-.38-12.95-.49-2.26-.05-4.05-1.92-4-4.18.05-2.23,1.87-4,4.09-4h.09c4.58.1,9.02.27,13.21.5,2.26.12,3.99,2.05,3.86,4.3-.12,2.18-1.92,3.87-4.08,3.87h0Z"/><path d="m108.4,8.45c-2.19,0-4-1.73-4.09-3.94-.08-2.26,1.68-4.16,3.94-4.24,4.25-.16,8.7-.25,13.21-.27h.02c2.25,0,4.08,1.82,4.09,4.07.01,2.26-1.81,4.1-4.07,4.11-4.42.02-8.78.11-12.95.27-.05,0-.1,0-.15,0h0Z"/></svg>