<?xml version="1.0" encoding="UTF-8"?><svg id="Layer_1" xmlns="http://www.w3.org/2000/svg" viewBox="0 0 724.22 691.23"><defs><style>.cls-1{fill-rule:evenodd;}.cls-2{opacity:.85;}.cls-3{opacity:.85;}.cls-4{opacity:0;}</style></defs><path class="cls-1" d="M340.5,347.63c25.24,13.05,53.9,20.41,84.25,20.41,101.56,0,184.02-82.46,184.02-184.02S526.32,0,424.75,0s-184.02,82.46-184.02,184.02v194.16c0,6.07,3.48,11.6,8.97,14.21,5.48,2.62,11.96,1.84,16.69-1.98,0,0,32.01-26.05,58.21-38.02,3.84-1.76,7.52-3.18,10.9-4.07,1.68-.44,4.27-.66,5-.71h0ZM424.75,31.49c84.19,0,152.54,68.35,152.54,152.54s-68.34,152.54-152.54,152.54c-25.38,0-49.32-6.21-70.38-17.2-4.98-2.59-11.21-3.78-18.46-3.04-7.03.73-15.48,3.38-24.39,7.45-13.05,5.95-27.4,15.02-39.3,23.22v-162.96c-.01-84.19,68.33-152.54,152.53-152.54h0Z"/><path class="cls-1" d="M197.18,329.88H47.23c-26.08,0-47.23,21.14-47.23,47.22v266.92c0,26.08,21.14,47.22,47.23,47.22h629.77c26.08,0,47.23-21.14,47.23-47.22v-266.92c0-12.51-4.97-24.53-13.84-33.39-8.85-8.86-20.87-13.83-33.39-13.83h-67.47c-8.7,0-15.74,7.05-15.74,15.74s7.05,15.74,15.74,15.74h67.47c4.17,0,8.17,1.67,11.14,4.62,2.94,2.95,4.61,6.95,4.61,11.12v266.92c0,8.7-7.05,15.74-15.74,15.74H47.23c-8.7,0-15.74-7.04-15.74-15.74v-266.92c0-8.69,7.05-15.74,15.74-15.74h149.95c8.69,0,15.74-7.05,15.74-15.74s-7.05-15.74-15.74-15.74h0Z"/><path class="cls-1" d="M114.71,633.52h494.81c8.7,0,15.74-7.06,15.74-15.75s-7.04-15.75-15.74-15.75H114.71c-8.7,0-15.74,7.06-15.74,15.75s7.04,15.75,15.74,15.75h0Z"/><path class="cls-1" d="M164.2,551.8c0,18.22-14.77,32.98-32.99,32.98s-32.99-14.77-32.99-32.98,14.77-32.99,32.99-32.99,32.99,14.77,32.99,32.99"/><path class="cls-1" d="M164.2,436.34c0,18.22-14.77,32.99-32.99,32.99s-32.99-14.77-32.99-32.99,14.77-32.99,32.99-32.99,32.99,14.77,32.99,32.99"/><path class="cls-1" d="M279.66,551.8c0,18.22-14.77,32.98-32.99,32.98s-32.99-14.77-32.99-32.98,14.77-32.99,32.99-32.99,32.99,14.77,32.99,32.99"/><path class="cls-1" d="M279.66,436.34c0,18.22-14.77,32.99-32.99,32.99s-32.99-14.77-32.99-32.99,14.77-32.99,32.99-32.99,32.99,14.77,32.99,32.99"/><path class="cls-1" d="M395.11,551.8c0,18.22-14.77,32.98-32.99,32.98s-32.99-14.77-32.99-32.98,14.77-32.99,32.99-32.99,32.99,14.77,32.99,32.99"/><path class="cls-1" d="M395.11,436.34c0,18.22-14.77,32.99-32.99,32.99s-32.99-14.77-32.99-32.99,14.77-32.99,32.99-32.99,32.99,14.77,32.99,32.99"/><path class="cls-1" d="M510.57,551.8c0,18.22-14.77,32.98-32.98,32.98s-32.99-14.77-32.99-32.98,14.77-32.99,32.99-32.99,32.98,14.77,32.98,32.99"/><path class="cls-1" d="M510.57,436.34c0,18.22-14.77,32.99-32.98,32.99s-32.99-14.77-32.99-32.99,14.77-32.99,32.99-32.99,32.98,14.77,32.98,32.99"/><path class="cls-1" d="M626.02,551.8c0,18.22-14.77,32.98-32.99,32.98s-32.98-14.77-32.98-32.98,14.77-32.99,32.98-32.99,32.99,14.77,32.99,32.99"/><path class="cls-1" d="M626.02,436.34c0,18.22-14.77,32.99-32.99,32.99s-32.98-14.77-32.98-32.99,14.77-32.99,32.98-32.99,32.99,14.77,32.99,32.99"/><path class="cls-4" d="M355.57,226.8c-15.72,0-23.44-7.71-23.44-24.41v-49.61c0-7.72,1.67-13.59,5.06-17.63l12.35,12.34c-.42,1.05-.62,2.35-.62,3.92v52.25c0,5.18,2.15,7.42,7.32,7.42h40.14c3.42,0,5.96.68,8.89,3.32l55.37,49.71c.88.88,1.66,1.17,2.34,1.17.98,0,1.76-.68,1.76-1.95v-.74l16.02,16.01c-1.72,5-6.25,8.36-12.02,8.36-5.47,0-9.77-2.44-14.94-7.13l-57.91-51.66c-.98-.88-2.15-1.37-3.42-1.37h-36.91M405.09,140.93l-12.77-12.76h.17c1.27,0,2.44-.29,3.42-1.17l57.91-51.76c5.66-4.98,9.28-7.71,14.75-7.71,7.62,0,12.99,6.15,12.99,13.57v136.26l-16.8-16.79v-109.51c0-1.17-.78-1.95-1.76-1.95s-1.66.59-2.44,1.27l-55.27,50.39-.19.17M549.4,38.25h-259.42v277.98h259.42V38.25"/><path class="cls-3" d="M337.2,135.15c-3.39,4.04-5.06,9.9-5.06,17.63v49.61c0,16.7,7.72,24.41,23.44,24.41h36.91c1.27,0,2.44.49,3.42,1.37l57.91,51.66c5.18,4.69,9.47,7.13,14.94,7.13,5.77,0,10.3-3.37,12.02-8.36l-16.02-16.01v.74c0,1.27-.78,1.95-1.76,1.95-.68,0-1.46-.29-2.34-1.17l-55.37-49.71c-2.93-2.64-5.47-3.32-8.89-3.32h-40.14c-5.18,0-7.32-2.25-7.32-7.42v-52.25c0-1.57.2-2.87.62-3.92l-12.35-12.34M468.56,67.52c-5.47,0-9.08,2.73-14.75,7.71l-57.91,51.76c-.98.88-2.15,1.17-3.42,1.17h-.17l12.77,12.76.19-.17,55.27-50.39c.78-.68,1.47-1.27,2.44-1.27s1.76.78,1.76,1.95v109.51l16.8,16.79V81.09c0-7.42-5.37-13.57-12.99-13.57"/><path class="cls-2" d="M521.59,300.14c3.22,3.32,8.59,3.32,11.82,0,3.22-3.32,3.22-8.5,0-11.72l-211.91-211.82c-3.22-3.22-8.59-3.32-11.91,0-3.12,3.12-3.12,8.59,0,11.72l212.01,211.82Z"/></svg>