<?xml version="1.0" encoding="UTF-8"?><svg id="Layer_1" xmlns="http://www.w3.org/2000/svg" viewBox="0 0 1200 1200"><defs><style>.cls-1{fill:#000;stroke-width:0px;}</style></defs><path class="cls-1" d="M114.88,1038c-15.14,0-23.83-.61-23.83-.61-4.85-.34-8.7-4.22-9-9.07-.29-4.85,3.06-9.17,7.84-10.08,142.25-27.25,207.39-185.53,221.27-224.07-158.75-63.03-253.2-170.89-253.2-289.86.01-188.75,243.17-342.32,542.05-342.32s542.03,153.56,542.03,342.31-243.16,342.28-542.03,342.28h-59.55c-118.21,177.54-355.26,191.42-425.57,191.42h0ZM332.29,792.23c-4.66,14.89-54.31,165.3-178.67,225.16,93.81-5.89,277.64-37.13,373.45-185.71,1.78-2.75,4.85-4.43,8.12-4.43h64.81c288.2,0,522.67-144.88,522.67-322.93s-234.47-322.96-522.67-322.96c-288.2,0-522.68,144.88-522.68,322.95,0,112.77,93.27,215.65,249.47,275.17,4.37,1.67,6.93,6.2,6.07,10.79-.11.68-.31,1.34-.57,1.96h0Z"/><path class="cls-1" d="M781,357.9c.95-5.28-.57-10.71-4.12-14.71-8.49-9.8-19.12-17.48-31.08-22.48-12.76-5.11-27.05-4.77-39.54.97-34.32,15.83-74.87,43.57-114.51,78.27-39.64-34.7-80.19-62.44-114.57-78.29-12.49-5.73-26.79-6.09-39.54-.97-11.92,4.99-22.53,12.68-31.02,22.42-3.55,4.04-5.07,9.47-4.12,14.75.97,5.43,4.39,10.12,9.25,12.7,44.52,23.5,87.25,50.25,127.84,80-74.02,79.56-122.77,168.11-137.34,249.8h.02c-.4,2.24.85,4.44,2.98,5.28.55.17,1.12.27,1.71.28,1.65,0,3.19-.85,4.02-2.28,48.54-79.79,109.58-151.29,180.77-211.75,71.19,60.46,132.22,131.94,180.77,211.73.84,1.42,2.37,2.3,4.02,2.28.59,0,1.16-.09,1.71-.28,2.13-.82,3.38-3.02,2.98-5.26-14.58-81.7-63.29-170.23-137.34-249.8l.02-.02c40.61-29.75,83.32-56.48,127.84-79.98,4.86-2.58,8.28-7.25,9.25-12.66h0Z"/></svg>